<svg width="138" height="63" viewBox="0 0 138 63" fill="none" xmlns="http://www.w3.org/2000/svg">
<g clip-path="url(#clip0_87_104)">
<path fill-rule="evenodd" clip-rule="evenodd" d="M33.5208 12.5392L46.9792 20.2765C47.5935 20.6297 48.1038 21.1377 48.4585 21.7495C48.8132 22.3614 49 23.0553 49 23.7617V39.2383C49 39.9448 48.8132 40.6387 48.4585 41.2506C48.1038 41.8623 47.5935 42.3704 46.9792 42.7236L33.5208 50.4608C32.9064 50.8141 32.2094 51 31.5 51C30.7905 51 30.0936 50.8141 29.4792 50.4608L16.0208 42.7236C15.4064 42.3704 14.8962 41.8623 14.5415 41.2506C14.1867 40.6387 14 39.9448 14 39.2383V23.7617C14 23.0553 14.1867 22.3614 14.5415 21.7495C14.8962 21.1377 15.4064 20.6297 16.0208 20.2765L29.4792 12.5392C30.0936 12.186 30.7905 12 31.5 12C32.2094 12 32.9064 12.186 33.5208 12.5392Z" fill="url(#paint0_linear_87_104)"/>
<g clip-path="url(#clip1_87_104)">
<path d="M23.5833 24.9209C22.7245 26.2635 22.147 27.9507 21.92 29.7768C21.8163 30.5896 21.841 32.1174 21.9693 32.9096C22.0779 33.5783 22.2753 34.4682 22.3691 34.6945C22.4135 34.8077 22.4185 34.8077 22.3938 34.6637C22.1322 33.033 22.1865 31.6081 22.5715 30.0238C22.9515 28.4342 23.5635 27.1122 24.4371 25.9805C24.6296 25.7336 24.7876 25.5227 24.7876 25.5176C24.7876 25.5073 24.5704 25.2912 24.2989 25.034L23.8103 24.5608L23.5833 24.9209Z" fill="#969696"/>
<path d="M25.3601 26.6493C24.9208 27.3591 24.6099 28.141 24.368 29.1081C24.141 30.0186 24.0768 30.6925 24.1163 31.5773C24.1755 32.7912 24.2002 32.8273 24.3384 31.855C24.4667 30.9291 24.6395 30.2501 24.9356 29.5351C25.1923 28.9126 25.6562 28.1205 26.0363 27.6472C26.2041 27.4414 26.362 27.2357 26.3916 27.1997C26.4262 27.1482 26.3423 27.0248 26.0461 26.7161C25.829 26.4898 25.6365 26.3046 25.6167 26.3046C25.5921 26.3046 25.4785 26.4589 25.3601 26.6493Z" fill="#969696"/>
<path d="M38.8047 28.496C38.8047 28.7789 38.6122 29.4373 38.4247 29.818C38.1483 30.3735 37.6152 30.9137 37.0723 31.1863C36.4702 31.4898 36.0556 31.5721 35.3399 31.531C34.7131 31.4949 33.9185 31.5875 33.4545 31.747L33.2077 31.8345L32.5019 33.0947C32.117 33.7892 31.8011 34.3653 31.8011 34.3807C31.7961 34.3962 31.9689 34.4425 32.1811 34.4888C32.3884 34.5299 32.5957 34.5814 32.6352 34.6019C32.6895 34.6225 32.803 34.5042 33.03 34.1853C33.4841 33.5526 34.1455 32.7604 34.5107 32.4054L34.8217 32.1071L35.2955 32.1482C35.9618 32.21 36.5097 32.1945 36.8798 32.0917C37.8768 31.8242 38.5185 31.1812 38.785 30.1781C38.8837 29.8026 38.938 28.5731 38.8639 28.4342C38.8146 28.3468 38.8097 28.3571 38.8047 28.496Z" fill="#969696"/>
<path d="M30.7695 33.5937C29.8367 33.9538 29.7577 33.9949 29.5998 34.1956C29.4418 34.3962 28.7903 35.4661 28.5682 35.8777L28.4794 36.0526L28.3659 35.7028C28.3017 35.5124 28.1833 35.2449 28.0994 35.1112L27.9464 34.8694L27.9809 35.3581C28.0401 36.0989 28.0253 37.3077 27.9513 37.5649C27.8674 37.8787 27.512 38.2233 27.0086 38.4805C26.7914 38.5989 26.6236 38.7017 26.6483 38.7172C26.668 38.7275 26.974 38.8509 27.3195 38.9847C28.0451 39.2676 27.9414 39.283 28.5979 38.7789C29.126 38.3725 29.2888 38.1256 29.4567 37.5083C29.8219 36.1143 29.891 35.9805 30.2464 35.8777C30.3549 35.8468 30.5968 35.8211 30.7843 35.8211C31.0706 35.8211 31.1545 35.8417 31.2631 35.9394C31.3371 36.0011 31.4556 36.0937 31.5296 36.1503C31.7024 36.2789 31.7961 36.531 31.7961 36.8756C31.7961 37.3849 31.6629 37.5392 30.9324 37.853C30.3599 38.0947 30.2414 38.1719 29.6491 38.676C28.9433 39.2779 28.9532 39.2419 29.4567 39.3036C29.6936 39.3345 29.9453 39.3396 30.0193 39.319C30.1871 39.2676 31.9195 38.069 32.0824 37.8838C32.1515 37.8118 32.2601 37.6266 32.3292 37.4723C32.497 37.0968 32.4674 36.6544 32.2453 36.1657C32.0479 35.7388 31.6036 35.2449 31.273 35.0958C31.0657 34.998 30.9867 34.9929 30.5277 35.0238C30.0341 35.0598 30.0144 35.0546 30.0588 34.962C30.1723 34.7408 30.5672 34.5042 30.9768 34.4065L31.2285 34.3499L31.5148 33.7943C31.6727 33.4908 31.7961 33.2336 31.7863 33.2233C31.7813 33.2131 31.3223 33.3828 30.7695 33.5937Z" fill="#969696"/>
<path d="M29.4171 19.3035C28.6915 19.6842 28.1091 20.0802 27.6304 20.5123C27.3589 20.7593 27.1368 20.9084 26.8111 21.0525C26.2385 21.3148 25.4192 21.7984 24.901 22.1893L24.4913 22.4928L23.1982 21.8549C22.4825 21.5051 21.8458 21.2068 21.7767 21.1914C21.6139 21.1502 21.5102 21.2222 21.5497 21.356C21.5892 21.4743 24.1063 24.0309 25.9621 25.8313C26.9246 26.7623 27.2503 27.1121 27.2257 27.1739C26.9196 27.9558 26.8851 28.4084 27.0924 28.9588C27.3046 29.5453 27.2849 29.8128 26.89 31.2942C26.204 33.892 26.0115 34.5658 25.9078 34.7407C25.8486 34.8385 25.592 35.2191 25.3402 35.5895C24.5654 36.7058 24.516 36.8549 24.6641 37.714C24.8269 38.6965 25.1231 39.5658 25.3649 39.7922C25.6364 40.0494 27.043 40.5895 27.5761 40.6409C27.8722 40.6667 27.8969 40.6615 28.2375 40.4506C28.5928 40.2294 28.5928 40.2294 28.9235 40.2706C29.1061 40.2963 29.501 40.3169 29.7971 40.3169C30.2857 40.322 30.3647 40.3066 30.5769 40.1934C31.0705 39.9208 32.6696 38.7582 32.8523 38.5422C33.1435 38.1821 33.3211 37.7397 33.3804 37.2253C33.4544 36.5926 33.4988 36.4383 33.7209 36.0936C33.8246 35.929 34.402 35.286 35.0042 34.6636L36.095 33.5319L36.3269 33.6656C36.9933 34.0463 37.4819 35.2037 37.4769 36.3868C37.472 38.5473 36.0505 40.7644 34.0467 41.7572C33.1336 42.2099 32.334 42.4002 31.1643 42.4414C30.1772 42.4774 29.5355 42.4156 28.6718 42.1944C23.5486 40.893 20.1184 35.3529 20.913 29.6687C21.1795 27.7706 21.8952 25.857 22.9415 24.2623C23.1093 24 23.2327 23.7737 23.213 23.7634C23.1192 23.7016 22.3345 24.679 21.8261 25.4815C21.4608 26.0628 20.8587 27.3333 20.6465 27.9712C20.1184 29.5504 19.8864 31.536 20.0443 33.1718C20.3108 35.9187 21.3967 38.3673 23.2327 40.3426C25.0046 42.251 27.2257 43.4547 29.7478 43.8714C30.4437 43.9897 31.8898 44.0257 32.6104 43.9537C35.246 43.6759 37.5954 42.5442 39.4907 40.6307C41.3366 38.7685 42.4718 36.4846 42.8864 33.7891C43.0098 32.9918 43.0098 30.9959 42.8814 30.1626C42.6939 28.9177 42.3731 27.8272 41.8647 26.7315C41.5784 26.1091 41.5784 26.0988 41.7166 26.1759C41.7956 26.2171 42.0029 26.3714 42.1855 26.5154C42.3681 26.6595 42.5211 26.7675 42.531 26.7572C42.5656 26.7263 42.2299 25.7387 42.0226 25.25C40.8924 22.5802 38.8293 20.8519 36.1098 20.2809C35.7199 20.2037 35.3102 20.1626 34.634 20.1471L33.6963 20.1163L33.9184 19.9208C34.0417 19.8076 34.328 19.6224 34.56 19.5041L34.9746 19.2881L34.7722 19.2263C34.0269 19 32.6845 18.9331 31.8799 19.0772C31.1347 19.2109 30.3104 19.535 29.6885 19.9362C29.5997 19.9928 29.5257 20.0237 29.5257 20.0031C29.5257 19.9156 29.6885 19.5864 29.8711 19.3138C29.9797 19.1389 30.0538 19 30.034 19C30.0143 19 29.7329 19.1389 29.4171 19.3035ZM31.9046 20.2706C31.1347 21.073 30.6214 22.2407 30.3696 23.784L30.2808 24.3241L30.0784 23.8868C29.7083 23.0844 29.6836 22.4671 29.9945 21.7829C30.2857 21.1451 31.0014 20.4969 31.9096 20.0494C32.107 19.9568 32.2699 19.8796 32.2797 19.8745C32.2847 19.8745 32.1169 20.0545 31.9046 20.2706ZM28.5336 20.7335C28.2868 21.4846 28.2375 22.4877 28.4151 23.1924C28.5287 23.6605 28.81 24.2109 29.0913 24.5298L29.343 24.8179L29.0518 24.6842C27.7291 24.0772 27.3441 23.1461 27.8475 21.7829C27.9759 21.4434 28.5435 20.4403 28.6076 20.4403C28.6224 20.4403 28.5879 20.5741 28.5336 20.7335ZM35.3941 21.4228C35.5274 22.2407 35.4287 23.1512 35.1375 23.784C34.8512 24.4064 33.8098 25.358 33.0842 25.6667C32.9312 25.7335 32.8029 25.821 32.793 25.8621C32.7832 25.9084 32.7832 25.9444 32.793 25.9496C32.8029 25.9496 33.0398 25.965 33.3261 25.9805C33.9282 26.0113 34.4317 25.9444 34.9252 25.7644C35.1177 25.6975 35.2757 25.6461 35.2757 25.6512C35.3349 25.7541 35.8186 27.7603 35.8679 28.1204C35.9025 28.3519 35.8926 28.3776 35.4385 29.1698C35.1819 29.6173 34.8463 30.1934 34.6932 30.4558L34.4119 30.9239L34.1059 30.9547C33.6123 31.0113 33.1089 31.0988 33.0201 31.1451C32.9263 31.1965 32.7141 31.5514 32.2057 32.5031C32.0132 32.8683 31.8306 33.1667 31.801 33.1615C31.7714 33.1512 31.7615 33.177 31.7714 33.213C31.7812 33.2438 31.6677 33.5165 31.5098 33.8097L31.2284 34.3498L30.9767 34.4064C30.5473 34.5041 30.0686 34.8128 30.0686 34.9877C30.0686 35.0442 30.1525 35.0494 30.5523 35.0237C30.9866 34.9877 31.0656 34.9979 31.2729 35.0957C31.6036 35.2449 32.0478 35.7387 32.2452 36.1656C32.4673 36.6543 32.4969 37.0967 32.3291 37.4722C32.26 37.6265 32.1514 37.8117 32.0823 37.8837C31.9194 38.0689 30.187 39.2675 30.0192 39.3189C29.9452 39.3395 29.6935 39.3344 29.4566 39.3035C29.037 39.2521 29.0321 39.2521 29.116 39.1492C29.3085 38.928 30.6806 37.822 30.957 37.6677C31.1248 37.5751 31.3272 37.4208 31.4061 37.323C31.5493 37.1584 31.5591 37.1173 31.5394 36.8395C31.5147 36.4691 31.4061 36.2994 31.0754 36.1296L30.8336 36.001L30.9965 35.9856C31.1001 35.9753 31.1544 35.9393 31.1544 35.8879C31.1544 35.821 31.0853 35.8107 30.7003 35.8313C29.9353 35.8673 29.8563 35.9547 29.5503 37.1533C29.4566 37.5288 29.3381 37.9249 29.2937 38.0278C29.1752 38.2798 28.8396 38.6193 28.3658 38.9537C28.1486 39.108 27.9611 39.2521 27.9463 39.2726C27.892 39.3549 27.4724 39.5247 27.3244 39.5247C27.1911 39.5247 26.6581 39.3292 26.2089 39.1132C26.0608 39.0412 25.9769 38.8611 25.8486 38.3158C25.7005 37.6883 25.6314 37.143 25.6857 37.0298C25.7154 36.9733 25.9671 36.5874 26.2484 36.1759C26.5297 35.7593 26.816 35.2963 26.8851 35.1471C27.0085 34.8539 27.3787 33.537 27.7784 31.9733C28.045 30.9033 28.0351 30.9136 28.2917 31.6132C28.3855 31.8652 28.4398 32.107 28.4398 32.2716C28.4398 32.4105 28.4596 32.5288 28.4793 32.5288C28.5583 32.5288 28.6817 32.3488 28.8199 32.0401C28.9433 31.7675 28.9581 31.6698 28.9581 31.2428C28.9581 30.8107 28.9383 30.6924 28.7754 30.214C28.4349 29.2058 28.4744 28.7016 28.9827 27.6368C29.2493 27.0864 30.1969 25.2397 30.2512 25.178C30.2611 25.1626 30.345 25.25 30.4387 25.3683C30.651 25.6204 30.8533 25.6872 31.0458 25.5535C31.4407 25.286 32.7437 23.9023 34.56 21.8138C34.9499 21.3663 35.2855 21.0216 35.3053 21.0422C35.3201 21.0628 35.3645 21.2377 35.3941 21.4228ZM34.3329 21.4794C34.3132 21.5154 34.096 21.7726 33.8542 22.0453C33.4791 22.4671 33.3705 22.5597 33.1583 22.6317C32.5857 22.8272 31.796 23.3158 31.189 23.8405L30.9965 24.0051L31.0754 23.82C31.342 23.1512 32.2008 22.287 33.0299 21.8447C33.6025 21.5463 34.4267 21.3148 34.3329 21.4794ZM36.4158 21.5412C37.5559 21.8601 38.7257 22.57 39.9793 23.6965C40.2261 23.9228 40.4334 24.1132 40.4334 24.1235C40.4334 24.1337 39.9842 23.9074 39.4364 23.6296C38.0643 22.9352 36.9488 22.5288 36.1147 22.4208L35.8433 22.3848V22.0144C35.8433 21.8138 35.8284 21.5977 35.8136 21.5309C35.7742 21.3817 35.8433 21.3817 36.4158 21.5412ZM26.6334 22.143C26.5248 22.5905 26.5692 23.0021 26.7864 23.5422C26.816 23.6142 26.7568 23.5988 26.4606 23.4599C25.5278 23.0175 25.1823 22.8426 25.1823 22.8117C25.1823 22.7294 26.6531 21.7521 26.7025 21.7984C26.7074 21.8086 26.6778 21.963 26.6334 22.143ZM27.4971 25.1368C28.4892 25.7027 28.6126 25.8056 28.6126 26.0885C28.6126 26.3148 28.4842 26.5103 28.3362 26.5103C28.2177 26.5103 27.4872 25.929 26.3471 24.9362C24.9799 23.7377 25.0046 23.7737 25.898 24.2521C26.3323 24.4835 27.0529 24.8796 27.4971 25.1368ZM37.3289 24.1183C39.7029 24.7613 41.4057 26.7984 42.0078 29.715C42.146 30.3786 42.2596 31.4177 42.2546 31.963V32.4002L42.1362 31.8858C41.8104 30.4249 41.2774 29.1337 40.4926 27.8889C39.5993 26.4846 38.2469 25.1317 36.8551 24.2675C36.5984 24.108 36.3862 23.9743 36.3862 23.9691C36.3862 23.9383 37.0623 24.0463 37.3289 24.1183ZM37.1759 26.2685C38.2074 26.9424 39.2784 27.966 39.9003 28.8765C40.5272 29.7973 41.0405 31.0319 41.2576 32.143C41.3909 32.8426 41.381 34.3807 41.2329 35.0597C41.0207 36.0679 40.616 37.0401 40.0978 37.8014C39.851 38.1615 39.8164 38.1975 39.8016 38.0844C39.7276 37.4208 39.4857 36.572 39.2093 36.001C38.7799 35.1008 38.0347 34.2212 37.2154 33.6348C36.9784 33.465 36.781 33.3107 36.781 33.285C36.781 33.2644 36.8304 33.249 36.8945 33.249C37.2795 33.249 38.0347 32.858 38.4641 32.4414C39.0366 31.8755 39.2686 31.2582 39.2636 30.2912C39.2636 29.9774 39.239 29.5813 39.2044 29.4064C39.1254 28.9743 39.007 28.5679 38.9576 28.5679C38.933 28.5679 38.9033 28.8611 38.8885 29.2212C38.849 30.2706 38.6467 30.857 38.1433 31.3714C37.4819 32.0504 36.6527 32.2767 35.2954 32.1481L34.8216 32.107L34.5106 32.4054C34.1454 32.7603 33.484 33.5525 33.0299 34.1852C32.8078 34.499 32.6845 34.6224 32.6351 34.6019C32.4426 34.5247 31.9984 34.4321 31.8108 34.4321C31.6924 34.4321 31.5986 34.4167 31.5986 34.3961C31.5986 34.2932 33.0941 31.5257 33.178 31.4743C33.2027 31.4588 33.484 31.4126 33.7999 31.3714C34.1108 31.3302 34.4267 31.2685 34.5008 31.2325C34.5797 31.1914 34.7574 30.9496 34.9647 30.5998L35.2954 30.034H36.1591L36.4948 29.3909C36.8995 28.6245 36.8995 28.8457 36.4651 27.0041L36.1542 25.6924L36.5046 25.8776C36.6971 25.9753 36.9982 26.1553 37.1759 26.2685ZM30.8928 36.5874C31.0754 36.6852 31.1149 36.9835 30.9718 37.1224C30.9224 37.1636 30.7744 37.251 30.6411 37.3128C30.5078 37.3693 30.3154 37.4877 30.2166 37.57C30.113 37.6574 30.0192 37.7243 30.0093 37.7243C29.9699 37.7243 30.2018 36.8241 30.2808 36.6595C30.3943 36.4383 30.5868 36.4126 30.8928 36.5874Z" fill="#ECECEC"/>
<path d="M33.8838 23.4907C33.2817 24.1852 32.9559 24.6019 32.9855 24.6327C33.0497 24.7047 33.6222 24.5401 33.9085 24.3652C34.2787 24.1389 34.6291 23.7428 34.7475 23.4136C34.866 23.0844 34.94 22.4774 34.8709 22.4311C34.8463 22.4156 34.402 22.894 33.8838 23.4907Z" fill="#ECECEC"/>
<path d="M31.7911 27.8066C31.263 28.4393 30.5868 29.216 30.2857 29.5453L29.733 30.1317L29.6342 29.9568C29.575 29.8642 29.5158 29.6584 29.496 29.5093C29.4664 29.2521 29.4615 29.2366 29.3924 29.3344C29.3529 29.3961 29.2887 29.6121 29.2493 29.8128C29.1308 30.4095 29.2295 30.8416 29.5405 31.037C29.7527 31.1759 29.9501 31.1656 30.0834 31.0216C30.1475 30.9444 30.2759 30.8827 30.4091 30.8621C30.725 30.8107 31.5147 30.4969 31.9885 30.2294C32.7091 29.823 32.9312 29.535 32.9312 29.0103C32.9312 28.5422 32.7141 28.1409 32.3883 28.0021L32.2501 27.9403L32.5709 27.3025C32.7881 26.8704 32.8671 26.6646 32.8177 26.6646C32.7782 26.6646 32.3192 27.179 31.7911 27.8066ZM32.1119 28.6245C32.3686 28.9383 32.339 29.2058 32.0181 29.5298C31.8997 29.643 31.6628 29.823 31.49 29.9259C31.1445 30.1265 30.493 30.394 30.5226 30.3272C30.5523 30.2449 31.9194 28.465 31.954 28.465C31.9688 28.465 32.0428 28.537 32.1119 28.6245Z" fill="#ECECEC"/>
<path d="M26.8209 36.5154C26.5692 36.8601 26.3422 37.215 26.3224 37.3025C26.1546 37.8992 26.7617 38.0946 27.2108 37.5854C27.3935 37.3848 27.4527 37.2459 27.4527 37.035C27.4527 36.8601 27.4231 36.8138 27.2405 36.68C27.1516 36.6183 27.1566 36.5977 27.275 36.2737C27.4675 35.7335 27.3342 35.8056 26.8209 36.5154Z" fill="#ECECEC"/>
</g>
</g>
<path d="M70.9176 23.9545V38.5H68.7159V26.1562H68.6307L65.1506 28.429V26.3267L68.7798 23.9545H70.9176ZM77.2457 23.9545V38.5H75.0511V23.9545H77.2457ZM92.1818 23.9545V38.5H90.1648L82.7713 27.8324H82.6364V38.5H80.4418V23.9545H82.473L89.8736 34.6364H90.0085V23.9545H92.1818ZM107.464 28.6847H105.248C105.163 28.2112 105.004 27.7945 104.772 27.4347C104.54 27.0748 104.256 26.7694 103.92 26.5185C103.584 26.2675 103.208 26.0781 102.791 25.9503C102.379 25.8224 101.941 25.7585 101.477 25.7585C100.639 25.7585 99.8884 25.9692 99.2255 26.3906C98.5674 26.812 98.0465 27.4299 97.663 28.2443C97.2842 29.0587 97.0948 30.053 97.0948 31.2273C97.0948 32.411 97.2842 33.41 97.663 34.2244C98.0465 35.0388 98.5697 35.6544 99.2326 36.071C99.8955 36.4877 100.641 36.696 101.47 36.696C101.929 36.696 102.365 36.6345 102.777 36.5114C103.193 36.3835 103.57 36.1965 103.906 35.9503C104.242 35.7041 104.526 35.4034 104.758 35.0483C104.995 34.6884 105.158 34.2765 105.248 33.8125L107.464 33.8196C107.346 34.5346 107.116 35.1927 106.775 35.794C106.439 36.3906 106.006 36.9067 105.475 37.3423C104.95 37.7732 104.349 38.107 103.672 38.3438C102.994 38.5805 102.256 38.6989 101.456 38.6989C100.196 38.6989 99.074 38.4006 98.0891 37.804C97.1043 37.2027 96.3278 36.3433 95.7596 35.2259C95.1961 34.1084 94.9144 32.7756 94.9144 31.2273C94.9144 29.6742 95.1985 28.3414 95.7667 27.2287C96.3349 26.1113 97.1114 25.2543 98.0962 24.6577C99.0811 24.0563 100.201 23.7557 101.456 23.7557C102.227 23.7557 102.947 23.867 103.615 24.0895C104.287 24.3073 104.891 24.6293 105.426 25.0554C105.961 25.4768 106.404 25.9929 106.754 26.6037C107.104 27.2098 107.341 27.9034 107.464 28.6847ZM110.09 38.5V23.9545H112.285V30.2756H119.536V23.9545H121.738V38.5H119.536V32.1577H112.285V38.5H110.09Z" fill="white"/>
<defs>
<linearGradient id="paint0_linear_87_104" x1="14" y1="12" x2="53.5063" y2="47.1068" gradientUnits="userSpaceOnUse">
<stop stop-color="#E51C3E"/>
<stop offset="1" stop-color="#E51C3E"/>
</linearGradient>
<clipPath id="clip0_87_104">
<rect width="35" height="39" fill="white" transform="translate(14 12)"/>
</clipPath>
<clipPath id="clip1_87_104">
<rect width="23" height="25" fill="white" transform="translate(20 19)"/>
</clipPath>
</defs>
</svg>
