<svg width="146" height="63" viewBox="0 0 146 63" fill="none" xmlns="http://www.w3.org/2000/svg">
<g clip-path="url(#clip0_86_67)">
<path fill-rule="evenodd" clip-rule="evenodd" d="M33.32 12.5359L46.64 20.2259C47.248 20.577 47.753 21.0819 48.1041 21.69C48.4551 22.2981 48.64 22.9878 48.64 23.6899V39.0719C48.64 39.7741 48.4551 40.4638 48.1041 41.0719C47.753 41.6799 47.248 42.1849 46.64 42.5359L33.32 50.2259C32.7119 50.577 32.0221 50.7618 31.32 50.7618C30.6178 50.7618 29.9281 50.577 29.32 50.2259L16 42.5359C15.3919 42.1849 14.887 41.6799 14.5359 41.0719C14.1848 40.4638 14 39.7741 14 39.0719V23.6899C14 22.9878 14.1848 22.2981 14.5359 21.69C14.887 21.0819 15.3919 20.577 16 20.2259L29.32 12.5359C29.9281 12.1849 30.6178 12 31.32 12C32.0221 12 32.7119 12.1849 33.32 12.5359Z" fill="url(#paint0_linear_86_67)"/>
<path d="M29.49 20.066C28.6593 20.1837 27.2812 20.586 26.4114 20.9687C25.307 21.4495 24.1439 22.2835 23.0884 23.3433L22.1111 24.3343L28.1608 24.3637L34.2106 24.3834L34.924 23.6965C35.3736 23.255 35.7059 23.0096 35.8525 23.0096C35.9991 23.0096 36.2923 23.2353 36.7028 23.6474C37.0449 24.0007 37.4163 24.3049 37.5335 24.3343C37.6508 24.3637 38.2079 24.3834 38.7552 24.3637L39.7717 24.3343L39.3514 23.8241C38.0809 22.2541 35.8036 20.851 33.6046 20.3015C32.5393 20.0267 30.5553 19.9188 29.49 20.066Z" fill="white"/>
<path d="M32.4123 26.6402C32.1288 26.9542 31.8259 27.2583 31.7477 27.2976C31.6597 27.3368 29.1088 27.3957 26.0693 27.4252L20.5473 27.4742L20.3421 28.3083C20.2248 28.7694 20.1075 29.3484 20.0684 29.6035L20 30.0745H30.3012L31.0147 29.3876C31.4642 28.946 31.7965 28.7007 31.9431 28.7007C32.08 28.7007 32.3927 28.9362 32.8423 29.3876L33.5167 30.0745H42L41.9316 29.6035C41.9023 29.3484 41.785 28.7694 41.6677 28.3083L41.4625 27.4742L34.7579 27.3761L34.1226 26.7089C33.2919 25.8356 33.1159 25.8356 32.4123 26.6402Z" fill="white"/>
<path d="M28.3856 32.4L27.7308 33.0672L23.968 33.0966C21.896 33.1162 20.2052 33.1653 20.2052 33.2046C20.2052 33.391 20.6939 34.9609 20.8894 35.4025L21.0946 35.8735L26.3527 35.8146L27.0173 35.1474C27.9067 34.2741 28.1022 34.2643 28.8156 35.0689C29.0893 35.3829 29.4314 35.6969 29.5584 35.7557C29.7148 35.8342 31.5229 35.8637 35.3443 35.8637H40.8956L41.1497 35.2946C41.3647 34.8039 41.8045 33.4008 41.8045 33.1947C41.8045 33.1457 39.3514 33.1162 36.3607 33.1162H30.9072L30.2621 32.4294C29.402 31.5169 29.275 31.5169 28.3856 32.4Z" fill="white"/>
<path d="M24.1635 37.8359C23.8312 38.1695 23.4598 38.4541 23.3132 38.4835C23.1568 38.513 23.0395 38.5718 23.0395 38.6111C23.0395 38.6503 23.235 38.8662 23.4696 39.0821C24.9356 40.4362 26.7534 41.3683 28.8059 41.8099C30.1057 42.0944 32.1679 42.0552 33.5167 41.7216C35.3443 41.2702 37.1426 40.3086 38.3936 39.1213L39.0191 38.5228L32.7348 38.513H26.4407L25.8543 37.8752C25.0822 37.0411 24.9356 37.0411 24.1635 37.8359Z" fill="white"/>
</g>
<path d="M66.4667 38.3809H64.1372L69.3715 23.8354H71.907L77.1414 38.3809H74.8119L70.6997 26.4774H70.586L66.4667 38.3809ZM66.8573 32.6848H74.4141V34.5314H66.8573V32.6848ZM79.2419 38.3809V23.8354H84.4266C85.5582 23.8354 86.4957 24.0414 87.2391 24.4533C87.9824 24.8652 88.5388 25.4287 88.9081 26.1436C89.2774 26.8539 89.4621 27.6541 89.4621 28.5442C89.4621 29.4391 89.2751 30.244 88.901 30.959C88.5317 31.6692 87.973 32.2327 87.2249 32.6493C86.4815 33.0613 85.5464 33.2672 84.4195 33.2672H80.8541V31.4064H84.2206C84.9356 31.4064 85.5156 31.2833 85.9607 31.0371C86.4057 30.7862 86.7324 30.4453 86.9408 30.0144C87.1491 29.5835 87.2533 29.0935 87.2533 28.5442C87.2533 27.995 87.1491 27.5073 86.9408 27.0811C86.7324 26.655 86.4034 26.3212 85.9536 26.0797C85.5085 25.8382 84.9214 25.7175 84.1922 25.7175H81.4365V38.3809H79.2419ZM91.3176 25.7246V23.8354H102.575V25.7246H98.0363V38.3809H95.8488V25.7246H91.3176ZM117.072 31.1081C117.072 32.6612 116.788 33.9964 116.22 35.1138C115.652 36.2265 114.873 37.0835 113.883 37.6848C112.898 38.2814 111.779 38.5797 110.524 38.5797C109.264 38.5797 108.14 38.2814 107.15 37.6848C106.165 37.0835 105.389 36.2241 104.821 35.1067C104.253 33.9893 103.968 32.6564 103.968 31.1081C103.968 29.5551 104.253 28.2222 104.821 27.1096C105.389 25.9921 106.165 25.1351 107.15 24.5385C108.14 23.9372 109.264 23.6365 110.524 23.6365C111.779 23.6365 112.898 23.9372 113.883 24.5385C114.873 25.1351 115.652 25.9921 116.22 27.1096C116.788 28.2222 117.072 29.5551 117.072 31.1081ZM114.899 31.1081C114.899 29.9244 114.707 28.9277 114.324 28.1181C113.945 27.3037 113.424 26.6882 112.761 26.2715C112.103 25.8501 111.357 25.6394 110.524 25.6394C109.686 25.6394 108.938 25.8501 108.28 26.2715C107.621 26.6882 107.101 27.3037 106.717 28.1181C106.338 28.9277 106.149 29.9244 106.149 31.1081C106.149 32.2918 106.338 33.2909 106.717 34.1053C107.101 34.915 107.621 35.5305 108.28 35.9519C108.938 36.3685 109.686 36.5769 110.524 36.5769C111.357 36.5769 112.103 36.3685 112.761 35.9519C113.424 35.5305 113.945 34.915 114.324 34.1053C114.707 33.2909 114.899 32.2918 114.899 31.1081ZM127.742 27.6564C127.666 26.9841 127.353 26.4632 126.804 26.0939C126.255 25.7199 125.564 25.5328 124.73 25.5328C124.134 25.5328 123.618 25.6275 123.182 25.8169C122.746 26.0016 122.408 26.2573 122.166 26.584C121.93 26.906 121.811 27.2729 121.811 27.6848C121.811 28.0305 121.892 28.3288 122.053 28.5797C122.218 28.8307 122.434 29.0414 122.699 29.2118C122.969 29.3775 123.258 29.5172 123.565 29.6309C123.873 29.7398 124.169 29.8297 124.453 29.9007L125.874 30.2701C126.338 30.3837 126.814 30.5376 127.301 30.7317C127.789 30.9258 128.241 31.1815 128.658 31.4988C129.074 31.816 129.411 32.209 129.666 32.6777C129.927 33.1465 130.057 33.7076 130.057 34.361C130.057 35.1848 129.844 35.9164 129.418 36.5556C128.996 37.1948 128.383 37.699 127.578 38.0684C126.778 38.4377 125.81 38.6223 124.673 38.6223C123.584 38.6223 122.642 38.4495 121.847 38.1039C121.051 37.7582 120.429 37.2682 119.979 36.6337C119.529 35.9945 119.28 35.2369 119.233 34.361H121.435C121.477 34.8865 121.648 35.3245 121.946 35.6749C122.249 36.0205 122.635 36.2786 123.104 36.449C123.577 36.6148 124.096 36.6976 124.659 36.6976C125.279 36.6976 125.831 36.6006 126.314 36.4064C126.802 36.2076 127.185 35.9329 127.465 35.5826C127.744 35.2275 127.884 34.8132 127.884 34.3397C127.884 33.9088 127.761 33.556 127.514 33.2814C127.273 33.0068 126.944 32.7795 126.527 32.5996C126.115 32.4197 125.649 32.2611 125.128 32.1238L123.409 31.655C122.244 31.3378 121.321 30.8714 120.639 30.2559C119.962 29.6403 119.624 28.8259 119.624 27.8127C119.624 26.9746 119.851 26.2431 120.305 25.6181C120.76 24.9931 121.376 24.5078 122.152 24.1621C122.929 23.8117 123.805 23.6365 124.78 23.6365C125.765 23.6365 126.634 23.8094 127.386 24.155C128.144 24.5007 128.741 24.9765 129.176 25.5826C129.612 26.1839 129.839 26.8752 129.858 27.6564H127.742Z" fill="white"/>
<defs>
<linearGradient id="paint0_linear_86_67" x1="14" y1="12" x2="53.2452" y2="46.7282" gradientUnits="userSpaceOnUse">
<stop stop-color="#204D40"/>
<stop offset="1" stop-color="#1A2824"/>
</linearGradient>
<clipPath id="clip0_86_67">
<rect width="34.64" height="38.7618" fill="white" transform="translate(14 12)"/>
</clipPath>
</defs>
</svg>
