<svg width="113" height="63" viewBox="0 0 113 63" fill="none" xmlns="http://www.w3.org/2000/svg">
<g clip-path="url(#clip0_101_1029)">
<path d="M63.5979 38.0002V23.4547H68.9246C69.9568 23.4547 70.8115 23.6252 71.4885 23.9661C72.1656 24.3023 72.6722 24.7592 73.0084 25.3368C73.3446 25.9098 73.5127 26.5561 73.5127 27.2758C73.5127 27.8818 73.4014 28.3932 73.1789 28.8099C72.9563 29.2218 72.658 29.5532 72.284 29.8042C71.9147 30.0504 71.5075 30.2303 71.0624 30.344V30.486C71.5454 30.5097 72.0165 30.6659 72.4758 30.9547C72.9398 31.2388 73.3233 31.6437 73.6263 32.1692C73.9294 32.6948 74.0809 33.334 74.0809 34.0868C74.0809 34.8302 73.9057 35.4978 73.5553 36.0897C73.2097 36.6768 72.6746 37.1432 71.9502 37.4888C71.2258 37.8297 70.3001 38.0002 69.1732 38.0002H63.5979ZM65.7925 36.1181H68.9601C70.0113 36.1181 70.7641 35.9145 71.2187 35.5073C71.6732 35.1001 71.9005 34.5911 71.9005 33.9803C71.9005 33.521 71.7845 33.0996 71.5525 32.7161C71.3204 32.3326 70.989 32.0272 70.5581 31.7999C70.132 31.5726 69.6254 31.459 69.0383 31.459H65.7925V36.1181ZM65.7925 29.7474H68.7329C69.2253 29.7474 69.668 29.6527 70.061 29.4633C70.4587 29.2739 70.7736 29.0087 71.0056 28.6678C71.2423 28.3222 71.3607 27.915 71.3607 27.4462C71.3607 26.8449 71.15 26.3406 70.7286 25.9334C70.3072 25.5262 69.6609 25.3226 68.7897 25.3226H65.7925V29.7474ZM75.7665 25.344V23.4547H87.0236V25.344H82.4853V38.0002H80.2978V25.344H75.7665ZM100.767 28.1849H98.5513C98.466 27.7114 98.3074 27.2947 98.0754 26.9349C97.8434 26.575 97.5593 26.2696 97.2231 26.0187C96.887 25.7677 96.5105 25.5783 96.0939 25.4505C95.6819 25.3226 95.244 25.2587 94.7799 25.2587C93.9419 25.2587 93.1914 25.4694 92.5285 25.8908C91.8704 26.3122 91.3495 26.9301 90.966 27.7445C90.5872 28.5589 90.3978 29.5532 90.3978 30.7275C90.3978 31.9112 90.5872 32.9102 90.966 33.7246C91.3495 34.539 91.8727 35.1546 92.5356 35.5712C93.1985 35.9879 93.9442 36.1962 94.7728 36.1962C95.2321 36.1962 95.6677 36.1347 96.0797 36.0116C96.4963 35.8837 96.8727 35.6967 97.2089 35.4505C97.5451 35.2043 97.8292 34.9036 98.0612 34.5485C98.2979 34.1886 98.4613 33.7767 98.5513 33.3127L100.767 33.3198C100.649 34.0348 100.419 34.6929 100.078 35.2942C99.7421 35.8908 99.3088 36.4069 98.7785 36.8425C98.253 37.2734 97.6516 37.6072 96.9745 37.844C96.2975 38.0807 95.5588 38.1991 94.7586 38.1991C93.4992 38.1991 92.377 37.9008 91.3922 37.3042C90.4073 36.7029 89.6308 35.8435 89.0626 34.7261C88.4992 33.6086 88.2174 32.2758 88.2174 30.7275C88.2174 29.1744 88.5015 27.8416 89.0697 26.7289C89.6379 25.6115 90.4144 24.7545 91.3993 24.1579C92.3841 23.5565 93.5039 23.2559 94.7586 23.2559C95.5304 23.2559 96.2501 23.3672 96.9177 23.5897C97.5901 23.8075 98.1938 24.1295 98.7288 24.5556C99.2638 24.977 99.7066 25.4931 100.057 26.1039C100.407 26.71 100.644 27.4036 100.767 28.1849Z" fill="white"/>
<path fill-rule="evenodd" clip-rule="evenodd" d="M32.9997 12.155L46.3197 19.845C46.9277 20.1961 47.4327 20.701 47.7838 21.3091C48.1348 21.9172 48.3197 22.6069 48.3197 23.309V38.691C48.3197 39.3932 48.1348 40.0829 47.7838 40.691C47.4327 41.299 46.9277 41.804 46.3197 42.155L32.9997 49.845C32.3916 50.1961 31.7018 50.3809 30.9997 50.3809C30.2975 50.3809 29.6078 50.1961 28.9997 49.845L15.6797 42.155C15.0716 41.804 14.5667 41.299 14.2156 40.691C13.8645 40.0829 13.6797 39.3932 13.6797 38.691V23.309C13.6797 22.6069 13.8645 21.9172 14.2156 21.3091C14.5667 20.701 15.0716 20.1961 15.6797 19.845L28.9997 12.155C29.6078 11.804 30.2975 11.6191 30.9997 11.6191C31.7018 11.6191 32.3916 11.804 32.9997 12.155Z" fill="url(#paint0_linear_101_1029)"/>
<path fill-rule="evenodd" clip-rule="evenodd" d="M35.1958 37.4168C34.0198 37.8418 32.9288 37.6808 32.4438 37.6168C32.2048 37.5858 31.8008 37.5118 31.3698 37.4228L30.6548 40.0898L29.0128 39.6498L29.7157 37.0258L28.4657 36.6908L27.7628 39.3148L26.1208 38.8748L26.8237 36.2508L23.5938 35.3848L24.4598 33.5028L25.4417 33.7668C25.7717 33.8548 25.9177 33.8608 26.0907 33.7678C26.2637 33.6738 26.3478 33.4828 26.3908 33.3218L28.2108 26.5278C28.3258 26.1018 28.3217 25.9778 28.1847 25.7068C28.0477 25.4348 27.5947 25.2828 27.3358 25.2138L26.3868 24.9588L26.8438 23.2548L30.0737 24.1198L30.7787 21.4878L32.4207 21.9278L31.7157 24.5598L32.9658 24.8948L33.6717 22.2628L35.3138 22.7028L34.5998 25.3668C35.8038 25.7708 36.6527 26.2478 37.2897 27.0488C38.1147 28.0838 37.7078 29.3888 37.5998 29.6978C37.4928 30.0058 37.1927 30.5748 36.8117 30.8918C36.4307 31.2098 35.6507 31.4198 35.6507 31.4198C35.6507 31.4198 36.4027 31.8028 36.8507 32.3748C37.2967 32.9468 37.5128 33.8018 37.1968 34.8848C36.8828 35.9688 36.3698 36.9908 35.1958 37.4168ZM31.7878 31.7168C31.1775 31.5212 30.5581 31.3553 29.9318 31.2198L28.9878 34.7418C28.9878 34.7418 30.0708 35.0568 30.8148 35.1988C31.5578 35.3398 32.3587 35.3578 32.7907 35.2508C33.2207 35.1438 33.7607 34.9428 33.9767 34.1378C34.1927 33.3318 33.7468 32.8508 33.4798 32.6148C33.2148 32.3788 32.5868 31.9888 31.7878 31.7178V31.7168ZM31.7348 29.9518C32.3398 30.0888 33.0138 30.1218 33.5418 29.9918C34.0698 29.8618 34.4378 29.5318 34.5828 28.9298C34.7278 28.3278 34.4647 27.7138 33.8447 27.3258C33.2247 26.9378 32.7768 26.8008 32.2648 26.6558C31.7528 26.5108 31.2188 26.4158 31.2188 26.4158L30.3687 29.5858C30.3687 29.5858 31.1308 29.8138 31.7348 29.9518Z" fill="white"/>
</g>
<defs>
<linearGradient id="paint0_linear_101_1029" x1="42.553" y1="38.5711" x2="16.9847" y2="23.6461" gradientUnits="userSpaceOnUse">
<stop stop-color="#FF9400"/>
<stop offset="1" stop-color="#FFBB21"/>
</linearGradient>
<clipPath id="clip0_101_1029">
<rect width="113" height="63" fill="white"/>
</clipPath>
</defs>
</svg>
