<svg width="152" height="63" viewBox="0 0 152 63" fill="none" xmlns="http://www.w3.org/2000/svg">
<g clip-path="url(#clip0_87_164)">
<path fill-rule="evenodd" clip-rule="evenodd" d="M33.5208 12.5392L46.9792 20.2765C47.5935 20.6297 48.1038 21.1377 48.4585 21.7495C48.8132 22.3614 49 23.0553 49 23.7617V39.2383C49 39.9448 48.8132 40.6387 48.4585 41.2506C48.1038 41.8623 47.5935 42.3704 46.9792 42.7236L33.5208 50.4608C32.9064 50.8141 32.2094 51 31.5 51C30.7905 51 30.0936 50.8141 29.4792 50.4608L16.0208 42.7236C15.4064 42.3704 14.8962 41.8623 14.5415 41.2506C14.1867 40.6387 14 39.9448 14 39.2383V23.7617C14 23.0553 14.1867 22.3614 14.5415 21.7495C14.8962 21.1377 15.4064 20.6297 16.0208 20.2765L29.4792 12.5392C30.0936 12.186 30.7905 12 31.5 12C32.2094 12 32.9064 12.186 33.5208 12.5392Z" fill="url(#paint0_linear_87_164)"/>
<path d="M21 40L29.0557 39.8951L29.7959 39.3704C30.8287 38.6358 31.2074 37.7788 31.2934 36.0298C31.3967 33.9835 31.2418 33.0916 30.6049 32.3745C30.3295 32.0422 29.9852 31.7623 29.8648 31.7623C29.4 31.7623 29.4344 31.43 29.968 30.9053L30.4844 30.3632L30.4328 27.8447C30.3811 25.3611 30.3811 25.3086 29.8648 24.5741C28.9352 23.2449 28.4877 23.1049 24.4943 23.0525L21 23V40ZM27.6787 25.7459C28.023 25.9907 28.0574 26.1481 28.0574 27.8447C28.0574 30.3457 28.0402 30.3632 25.3033 30.3632H23.2377V25.466H25.2689C26.818 25.466 27.3861 25.536 27.6787 25.7459ZM28.591 33.144C28.8664 33.4763 28.918 33.8436 28.918 35.1903C28.918 37.5514 28.9352 37.534 25.7336 37.534H23.2377V35.2078C23.2377 33.9136 23.2893 32.8117 23.3582 32.7418C23.427 32.6718 24.5631 32.6368 25.8713 32.6718C28.1434 32.7243 28.2811 32.7418 28.591 33.144Z" fill="#151515"/>
<path d="M32.5328 25.466H34.7705V23.0174H32.5328V25.466Z" fill="#151515"/>
<path d="M37.3525 27.9147H32.5328V39.9826H34.7705V30.3632H37.3525V39.9826H42V37.534H39.5902V30.3632H42V27.9147H39.5902V23.0175H37.3525V27.9147Z" fill="#151515"/>
</g>
<path d="M65.598 38.5V23.9545H70.9247C71.9569 23.9545 72.8116 24.125 73.4886 24.4659C74.1657 24.8021 74.6723 25.259 75.0085 25.8366C75.3447 26.4096 75.5128 27.0559 75.5128 27.7756C75.5128 28.3816 75.4015 28.893 75.179 29.3097C74.9564 29.7216 74.6581 30.053 74.2841 30.304C73.9148 30.5502 73.5076 30.7301 73.0625 30.8438V30.9858C73.5455 31.0095 74.0166 31.1657 74.4759 31.4545C74.9399 31.7386 75.3234 32.1435 75.6264 32.669C75.9295 33.1946 76.081 33.8338 76.081 34.5866C76.081 35.33 75.9058 35.9976 75.5554 36.5895C75.2098 37.1766 74.6747 37.643 73.9503 37.9886C73.2259 38.3295 72.3002 38.5 71.1733 38.5H65.598ZM67.7926 36.6179H70.9602C72.0114 36.6179 72.7642 36.4143 73.2188 36.0071C73.6733 35.5999 73.9006 35.0909 73.9006 34.4801C73.9006 34.0208 73.7846 33.5994 73.5526 33.2159C73.3205 32.8324 72.9891 32.527 72.5582 32.2997C72.1321 32.0724 71.6255 31.9588 71.0384 31.9588H67.7926V36.6179ZM67.7926 30.2472H70.733C71.2254 30.2472 71.6681 30.1525 72.0611 29.9631C72.4588 29.7737 72.7737 29.5085 73.0057 29.1676C73.2424 28.822 73.3608 28.4148 73.3608 27.946C73.3608 27.3447 73.1501 26.8404 72.7287 26.4332C72.3073 26.026 71.661 25.8224 70.7898 25.8224H67.7926V30.2472ZM80.8786 23.9545V38.5H78.6839V23.9545H80.8786ZM83.3572 25.8438V23.9545H94.6143V25.8438H90.076V38.5H87.8885V25.8438H83.3572ZM101.811 38.5H97.1019V23.9545H101.96C103.385 23.9545 104.609 24.2457 105.632 24.8281C106.654 25.4058 107.438 26.2367 107.983 27.321C108.532 28.4006 108.806 29.6955 108.806 31.206C108.806 32.7211 108.529 34.0232 107.975 35.1122C107.426 36.2012 106.631 37.0393 105.589 37.6264C104.547 38.2088 103.288 38.5 101.811 38.5ZM99.2965 36.5824H101.69C102.798 36.5824 103.719 36.3741 104.453 35.9574C105.187 35.536 105.736 34.9276 106.1 34.1321C106.465 33.3319 106.647 32.3565 106.647 31.206C106.647 30.0649 106.465 29.0966 106.1 28.3011C105.741 27.5057 105.203 26.902 104.488 26.4901C103.773 26.0781 102.886 25.8722 101.825 25.8722H99.2965V36.5824ZM112.042 38.5H109.712L114.946 23.9545H117.482L122.716 38.5H120.387L116.275 26.5966H116.161L112.042 38.5ZM112.432 32.804H119.989V34.6506H112.432V32.804ZM136.768 31.2273C136.768 32.7803 136.484 34.1155 135.916 35.233C135.348 36.3456 134.569 37.2027 133.579 37.804C132.594 38.4006 131.475 38.6989 130.22 38.6989C128.96 38.6989 127.836 38.4006 126.846 37.804C125.861 37.2027 125.085 36.3433 124.517 35.2259C123.949 34.1084 123.664 32.7756 123.664 31.2273C123.664 29.6742 123.949 28.3414 124.517 27.2287C125.085 26.1113 125.861 25.2543 126.846 24.6577C127.836 24.0563 128.96 23.7557 130.22 23.7557C131.475 23.7557 132.594 24.0563 133.579 24.6577C134.569 25.2543 135.348 26.1113 135.916 27.2287C136.484 28.3414 136.768 29.6742 136.768 31.2273ZM134.595 31.2273C134.595 30.0436 134.403 29.0469 134.02 28.2372C133.641 27.4228 133.12 26.8073 132.457 26.3906C131.799 25.9692 131.053 25.7585 130.22 25.7585C129.382 25.7585 128.634 25.9692 127.975 26.3906C127.317 26.8073 126.797 27.4228 126.413 28.2372C126.034 29.0469 125.845 30.0436 125.845 31.2273C125.845 32.411 126.034 33.41 126.413 34.2244C126.797 35.0341 127.317 35.6496 127.975 36.071C128.634 36.4877 129.382 36.696 130.22 36.696C131.053 36.696 131.799 36.4877 132.457 36.071C133.12 35.6496 133.641 35.0341 134.02 34.2244C134.403 33.41 134.595 32.411 134.595 31.2273Z" fill="white"/>
<defs>
<linearGradient id="paint0_linear_87_164" x1="14" y1="12" x2="53.5063" y2="47.1068" gradientUnits="userSpaceOnUse">
<stop stop-color="#B5EB43"/>
<stop offset="1" stop-color="#AEFF02"/>
</linearGradient>
<clipPath id="clip0_87_164">
<rect width="35" height="39" fill="white" transform="translate(14 12)"/>
</clipPath>
</defs>
</svg>
