<svg width="113" height="63" viewBox="0 0 113 63" fill="none" xmlns="http://www.w3.org/2000/svg">
<g clip-path="url(#clip0_101_1156)">
<path d="M63.8268 38.0001H61.4973L66.7316 23.4546H69.2671L74.5015 38.0001H72.172L68.0598 26.0967H67.9461L63.8268 38.0001ZM64.2174 32.3041H71.7742V34.1507H64.2174V32.3041ZM81.1108 38.0001H76.402V23.4546H81.26C82.6852 23.4546 83.9091 23.7458 84.9318 24.3282C85.9546 24.9059 86.7382 25.7368 87.2827 26.8211C87.8319 27.9007 88.1066 29.1956 88.1066 30.7061C88.1066 32.2212 87.8296 33.5233 87.2756 34.6123C86.7264 35.7013 85.9309 36.5394 84.8892 37.1265C83.8476 37.7089 82.5881 38.0001 81.1108 38.0001ZM78.5966 36.0825H80.9901C82.098 36.0825 83.019 35.8742 83.7529 35.4575C84.4868 35.0361 85.036 34.4277 85.4006 33.6322C85.7652 32.832 85.9475 31.8566 85.9475 30.7061C85.9475 29.565 85.7652 28.5967 85.4006 27.8012C85.0407 27.0058 84.5033 26.4021 83.7884 25.9902C83.0734 25.5782 82.1856 25.3723 81.125 25.3723H78.5966V36.0825ZM91.1416 38.0001H88.8121L94.0465 23.4546H96.582L101.816 38.0001H99.4868L95.3746 26.0967H95.261L91.1416 38.0001ZM91.5323 32.3041H99.0891V34.1507H91.5323V32.3041Z" fill="white"/>
<path fill-rule="evenodd" clip-rule="evenodd" d="M31.9997 12.155L45.3197 19.845C45.9277 20.1961 46.4327 20.701 46.7838 21.3091C47.1348 21.9172 47.3197 22.6069 47.3197 23.309V38.691C47.3197 39.3932 47.1348 40.0829 46.7838 40.691C46.4327 41.299 45.9277 41.804 45.3197 42.155L31.9997 49.845C31.3916 50.1961 30.7018 50.3809 29.9997 50.3809C29.2975 50.3809 28.6078 50.1961 27.9997 49.845L14.6797 42.155C14.0716 41.804 13.5667 41.299 13.2156 40.691C12.8645 40.0829 12.6797 39.3932 12.6797 38.691V23.309C12.6797 22.6069 12.8645 21.9172 13.2156 21.3091C13.5667 20.701 14.0716 20.1961 14.6797 19.845L27.9997 12.155C28.6078 11.804 29.2975 11.6191 29.9997 11.6191C30.7018 11.6191 31.3916 11.804 31.9997 12.155Z" fill="url(#paint0_linear_101_1156)"/>
<path fill-rule="evenodd" clip-rule="evenodd" d="M34.1958 37.4168C33.0198 37.8418 31.9288 37.6808 31.4438 37.6168C31.2048 37.5858 30.8008 37.5118 30.3698 37.4228L29.6548 40.0898L28.0128 39.6498L28.7157 37.0258L27.4657 36.6908L26.7628 39.3148L25.1208 38.8748L25.8237 36.2508L22.5938 35.3848L23.4598 33.5028L24.4417 33.7668C24.7717 33.8548 24.9177 33.8608 25.0907 33.7678C25.2637 33.6738 25.3478 33.4828 25.3908 33.3218L27.2108 26.5278C27.3258 26.1018 27.3217 25.9778 27.1847 25.7068C27.0477 25.4348 26.5947 25.2828 26.3358 25.2138L25.3868 24.9588L25.8438 23.2548L29.0737 24.1198L29.7787 21.4878L31.4207 21.9278L30.7157 24.5598L31.9657 24.8948L32.6717 22.2628L34.3138 22.7028L33.5998 25.3668C34.8038 25.7708 35.6527 26.2478 36.2897 27.0488C37.1147 28.0838 36.7078 29.3888 36.5998 29.6978C36.4928 30.0058 36.1927 30.5748 35.8117 30.8918C35.4307 31.2098 34.6507 31.4198 34.6507 31.4198C34.6507 31.4198 35.4027 31.8028 35.8507 32.3748C36.2967 32.9468 36.5128 33.8018 36.1968 34.8848C35.8828 35.9688 35.3698 36.9908 34.1958 37.4168ZM30.7878 31.7168C30.1775 31.5212 29.5581 31.3553 28.9318 31.2198L27.9878 34.7418C27.9878 34.7418 29.0708 35.0568 29.8148 35.1988C30.5578 35.3398 31.3588 35.3578 31.7908 35.2508C32.2208 35.1438 32.7607 34.9428 32.9767 34.1378C33.1927 33.3318 32.7468 32.8508 32.4798 32.6148C32.2148 32.3788 31.5868 31.9888 30.7878 31.7178V31.7168ZM30.7348 29.9518C31.3398 30.0888 32.0138 30.1218 32.5418 29.9918C33.0698 29.8618 33.4378 29.5318 33.5828 28.9298C33.7278 28.3278 33.4647 27.7138 32.8447 27.3258C32.2247 26.9378 31.7767 26.8008 31.2647 26.6558C30.7527 26.5108 30.2188 26.4158 30.2188 26.4158L29.3687 29.5858C29.3687 29.5858 30.1308 29.8138 30.7348 29.9518Z" fill="white"/>
<path fill-rule="evenodd" clip-rule="evenodd" d="M31.9997 12.155L45.3197 19.845C45.9277 20.1961 46.4327 20.701 46.7838 21.3091C47.1348 21.9172 47.3197 22.6069 47.3197 23.309V38.691C47.3197 39.3932 47.1348 40.0829 46.7838 40.691C46.4327 41.299 45.9277 41.804 45.3197 42.155L31.9997 49.845C31.3916 50.1961 30.7018 50.3809 29.9997 50.3809C29.2975 50.3809 28.6078 50.1961 27.9997 49.845L14.6797 42.155C14.0716 41.804 13.5667 41.299 13.2156 40.691C12.8645 40.0829 12.6797 39.3932 12.6797 38.691V23.309C12.6797 22.6069 12.8645 21.9172 13.2156 21.3091C13.5667 20.701 14.0716 20.1961 14.6797 19.845L27.9997 12.155C28.6078 11.804 29.2975 11.6191 29.9997 11.6191C30.7018 11.6191 31.3916 11.804 31.9997 12.155Z" fill="url(#paint1_linear_101_1156)"/>
<path d="M29.9607 39.0758C30.1072 39.0758 30.2477 39.134 30.3514 39.2376C30.455 39.3412 30.5132 39.4818 30.5132 39.6283C30.5132 39.7748 30.455 39.9154 30.3514 40.019C30.2477 40.1226 30.1072 40.1808 29.9607 40.1808C29.8142 40.1808 29.6736 40.1226 29.57 40.019C29.4664 39.9154 29.4082 39.7748 29.4082 39.6283C29.4082 39.4818 29.4664 39.3412 29.57 39.2376C29.6736 39.134 29.8142 39.0758 29.9607 39.0758ZM25.2377 38.7888C25.3564 38.7888 25.4702 38.836 25.5541 38.9199C25.638 39.0038 25.6852 39.1176 25.6852 39.2363C25.6852 39.355 25.638 39.4688 25.5541 39.5527C25.4702 39.6367 25.3564 39.6838 25.2377 39.6838C25.119 39.6838 25.0052 39.6367 24.9213 39.5527C24.8373 39.4688 24.7902 39.355 24.7902 39.2363C24.7902 39.1176 24.8373 39.0038 24.9213 38.9199C25.0052 38.836 25.119 38.7888 25.2377 38.7888ZM34.7957 38.7708C34.8544 38.7708 34.9125 38.7824 34.9667 38.8048C35.021 38.8273 35.0703 38.8602 35.1118 38.9017C35.1533 38.9432 35.1862 38.9925 35.2087 39.0468C35.2311 39.101 35.2427 39.1591 35.2427 39.2178C35.2427 39.2765 35.2311 39.3346 35.2087 39.3889C35.1862 39.4431 35.1533 39.4924 35.1118 39.5339C35.0703 39.5754 35.021 39.6083 34.9667 39.6308C34.9125 39.6533 34.8544 39.6648 34.7957 39.6648C34.6771 39.6648 34.5634 39.6177 34.4796 39.5339C34.3958 39.4501 34.3487 39.3364 34.3487 39.2178C34.3487 39.0993 34.3958 38.9856 34.4796 38.9017C34.5634 38.8179 34.6771 38.7708 34.7957 38.7708ZM26.4917 36.3738C26.6731 36.3738 26.8471 36.4459 26.9753 36.5742C27.1036 36.7024 27.1757 36.8764 27.1757 37.0578C27.1757 37.2392 27.1036 37.4132 26.9753 37.5415C26.8471 37.6697 26.6731 37.7418 26.4917 37.7418C26.3103 37.7418 26.1363 37.6697 26.008 37.5415C25.8798 37.4132 25.8077 37.2392 25.8077 37.0578C25.8077 36.8764 25.8798 36.7024 26.008 36.5742C26.1363 36.4459 26.3103 36.3738 26.4917 36.3738ZM33.5307 36.3688C33.6205 36.3688 33.7095 36.3865 33.7924 36.4209C33.8754 36.4553 33.9508 36.5056 34.0143 36.5692C34.0779 36.6327 34.1282 36.7081 34.1626 36.7911C34.197 36.874 34.2147 36.963 34.2147 37.0528C34.2147 37.1426 34.197 37.2316 34.1626 37.3146C34.1282 37.3976 34.0779 37.473 34.0143 37.5365C33.9508 37.6 33.8754 37.6504 33.7924 37.6847C33.7095 37.7191 33.6205 37.7368 33.5307 37.7368C33.3493 37.7368 33.1753 37.6647 33.047 37.5365C32.9188 37.4082 32.8467 37.2342 32.8467 37.0528C32.8467 36.8714 32.9188 36.6974 33.047 36.5692C33.1753 36.4409 33.3493 36.3688 33.5307 36.3688ZM29.9727 35.6038C30.0796 35.5984 30.1866 35.6148 30.287 35.6521C30.3874 35.6893 30.4792 35.7465 30.5568 35.8203C30.6344 35.8941 30.6962 35.9829 30.7384 36.0813C30.7807 36.1798 30.8024 36.2857 30.8024 36.3928C30.8024 36.4999 30.7807 36.6059 30.7384 36.7043C30.6962 36.8027 30.6344 36.8915 30.5568 36.9653C30.4792 37.0391 30.3874 37.0963 30.287 37.1336C30.1866 37.1708 30.0796 37.1872 29.9727 37.1818C29.7703 37.1716 29.5796 37.084 29.4399 36.9372C29.3003 36.7903 29.2224 36.5955 29.2224 36.3928C29.2224 36.1902 29.3003 35.9953 29.4399 35.8484C29.5796 35.7016 29.7703 35.614 29.9727 35.6038ZM22.5047 34.7638C22.6512 34.7638 22.7917 34.822 22.8954 34.9256C22.999 35.0293 23.0572 35.1698 23.0572 35.3163C23.0572 35.4628 22.999 35.6034 22.8954 35.707C22.7917 35.8106 22.6512 35.8688 22.5047 35.8688C22.3582 35.8688 22.2176 35.8106 22.114 35.707C22.0104 35.6034 21.9522 35.4628 21.9522 35.3163C21.9522 35.1698 22.0104 35.0293 22.114 34.9256C22.2176 34.822 22.3582 34.7638 22.5047 34.7638ZM37.5117 34.7258C37.6582 34.7258 37.7987 34.784 37.9024 34.8876C38.006 34.9913 38.0642 35.1318 38.0642 35.2783C38.0642 35.4248 38.006 35.5654 37.9024 35.669C37.7987 35.7726 37.6582 35.8308 37.5117 35.8308C37.3652 35.8308 37.2246 35.7726 37.121 35.669C37.0174 35.5654 36.9592 35.4248 36.9592 35.2783C36.9592 35.1318 37.0174 34.9913 37.121 34.8876C37.2246 34.784 37.3652 34.7258 37.5117 34.7258ZM28.4177 32.3468C28.7805 32.3468 29.1285 32.4909 29.385 32.7475C29.6416 33.004 29.7857 33.352 29.7857 33.7148C29.7857 34.0776 29.6416 34.4256 29.385 34.6821C29.1285 34.9387 28.7805 35.0828 28.4177 35.0828C28.0549 35.0828 27.7069 34.9387 27.4504 34.6821C27.1938 34.4256 27.0497 34.0776 27.0497 33.7148C27.0497 33.352 27.1938 33.004 27.4504 32.7475C27.7069 32.4909 28.0549 32.3468 28.4177 32.3468ZM31.5847 32.3338C31.9475 32.3338 32.2955 32.4779 32.552 32.7345C32.8086 32.991 32.9527 33.339 32.9527 33.7018C32.9527 34.0646 32.8086 34.4126 32.552 34.6691C32.2955 34.9257 31.9475 35.0698 31.5847 35.0698C31.2219 35.0698 30.8739 34.9257 30.6174 34.6691C30.3608 34.4126 30.2167 34.0646 30.2167 33.7018C30.2167 33.339 30.3608 32.991 30.6174 32.7345C30.8739 32.4779 31.2219 32.3338 31.5847 32.3338ZM25.3067 32.8968C25.4136 32.8914 25.5206 32.9078 25.621 32.9451C25.7214 32.9823 25.8132 33.0395 25.8908 33.1133C25.9684 33.1871 26.0302 33.2759 26.0724 33.3743C26.1147 33.4728 26.1364 33.5787 26.1364 33.6858C26.1364 33.7929 26.1147 33.8989 26.0724 33.9973C26.0302 34.0957 25.9684 34.1845 25.8908 34.2583C25.8132 34.3321 25.7214 34.3893 25.621 34.4266C25.5206 34.4638 25.4136 34.4802 25.3067 34.4748C25.1043 34.4646 24.9136 34.377 24.7739 34.2302C24.6343 34.0833 24.5564 33.8885 24.5564 33.6858C24.5564 33.4832 24.6343 33.2883 24.7739 33.1414C24.9136 32.9946 25.1043 32.907 25.3067 32.8968ZM34.6967 32.8688C34.8036 32.8634 34.9106 32.8798 35.011 32.9171C35.1114 32.9543 35.2032 33.0115 35.2808 33.0853C35.3584 33.1591 35.4202 33.2479 35.4624 33.3463C35.5047 33.4448 35.5264 33.5507 35.5264 33.6578C35.5264 33.7649 35.5047 33.8709 35.4624 33.9693C35.4202 34.0677 35.3584 34.1565 35.2808 34.2303C35.2032 34.3041 35.1114 34.3613 35.011 34.3986C34.9106 34.4358 34.8036 34.4522 34.6967 34.4468C34.4943 34.4366 34.3036 34.349 34.1639 34.2022C34.0243 34.0553 33.9464 33.8605 33.9464 33.6578C33.9464 33.4552 34.0243 33.2603 34.1639 33.1134C34.3036 32.9666 34.4943 32.879 34.6967 32.8688ZM26.8287 29.5998C27.1915 29.5998 27.5395 29.7439 27.796 30.0005C28.0526 30.257 28.1967 30.605 28.1967 30.9678C28.1967 31.3306 28.0526 31.6786 27.796 31.9351C27.5395 32.1917 27.1915 32.3358 26.8287 32.3358C26.4659 32.3358 26.1179 32.1917 25.8614 31.9351C25.6048 31.6786 25.4607 31.3306 25.4607 30.9678C25.4607 30.605 25.6048 30.257 25.8614 30.0005C26.1179 29.7439 26.4659 29.5998 26.8287 29.5998ZM33.1637 29.5848C33.5265 29.5848 33.8745 29.7289 34.131 29.9855C34.3876 30.242 34.5317 30.59 34.5317 30.9528C34.5317 31.3156 34.3876 31.6636 34.131 31.9201C33.8745 32.1767 33.5265 32.3208 33.1637 32.3208C32.8009 32.3208 32.4529 32.1767 32.1964 31.9201C31.9398 31.6636 31.7957 31.3156 31.7957 30.9528C31.7957 30.59 31.9398 30.242 32.1964 29.9855C32.4529 29.7289 32.8009 29.5848 33.1637 29.5848ZM22.9487 30.2968C23.0385 30.2968 23.1275 30.3145 23.2104 30.3489C23.2934 30.3833 23.3688 30.4336 23.4323 30.4972C23.4959 30.5607 23.5462 30.6361 23.5806 30.7191C23.615 30.802 23.6327 30.891 23.6327 30.9808C23.6327 31.0706 23.615 31.1596 23.5806 31.2426C23.5462 31.3256 23.4959 31.401 23.4323 31.4645C23.3688 31.528 23.2934 31.5784 23.2104 31.6127C23.1275 31.6471 23.0385 31.6648 22.9487 31.6648C22.7673 31.6648 22.5933 31.5927 22.465 31.4645C22.3368 31.3362 22.2647 31.1622 22.2647 30.9808C22.2647 30.7994 22.3368 30.6254 22.465 30.4972C22.5933 30.3689 22.7673 30.2968 22.9487 30.2968ZM37.0397 30.2618C37.1316 30.2583 37.2234 30.2734 37.3094 30.3061C37.3954 30.3389 37.4739 30.3887 37.5402 30.4525C37.6065 30.5163 37.6592 30.5928 37.6952 30.6775C37.7313 30.7622 37.7498 30.8533 37.7498 30.9453C37.7498 31.0373 37.7313 31.1284 37.6952 31.2131C37.6592 31.2978 37.6065 31.3743 37.5402 31.4381C37.4739 31.5019 37.3954 31.5517 37.3094 31.5845C37.2234 31.6173 37.1316 31.6323 37.0397 31.6288C36.8629 31.6221 36.6957 31.5471 36.573 31.4196C36.4504 31.2922 36.3818 31.1222 36.3818 30.9453C36.3818 30.7684 36.4504 30.5984 36.573 30.471C36.6957 30.3435 36.8629 30.2686 37.0397 30.2618ZM20.4397 30.5418C20.5584 30.5418 20.6722 30.589 20.7561 30.6729C20.84 30.7568 20.8872 30.8706 20.8872 30.9893C20.8872 31.108 20.84 31.2218 20.7561 31.3057C20.6722 31.3897 20.5584 31.4368 20.4397 31.4368C20.321 31.4368 20.2072 31.3897 20.1233 31.3057C20.0393 31.2218 19.9922 31.108 19.9922 30.9893C19.9922 30.8706 20.0393 30.7568 20.1233 30.6729C20.2072 30.589 20.321 30.5418 20.4397 30.5418ZM39.5457 30.5098C39.6642 30.5098 39.7779 30.5569 39.8618 30.6407C39.9456 30.7246 39.9927 30.8383 39.9927 30.9568C39.9927 31.0754 39.9456 31.1891 39.8618 31.2729C39.7779 31.3567 39.6642 31.4038 39.5457 31.4038C39.4271 31.4038 39.3134 31.3567 39.2296 31.2729C39.1458 31.1891 39.0987 31.0754 39.0987 30.9568C39.0987 30.8383 39.1458 30.7246 39.2296 30.6407C39.3134 30.5569 39.4271 30.5098 39.5457 30.5098ZM28.4057 26.8558C28.5884 26.8509 28.7702 26.8826 28.9404 26.9491C29.1107 27.0156 29.2659 27.1155 29.3968 27.243C29.5278 27.3705 29.6319 27.5229 29.703 27.6913C29.774 27.8596 29.8107 28.0406 29.8107 28.2233C29.8107 28.4061 29.774 28.587 29.703 28.7554C29.6319 28.9237 29.5278 29.0762 29.3968 29.2036C29.2659 29.3311 29.1107 29.431 28.9404 29.4975C28.7702 29.564 28.5884 29.5958 28.4057 29.5908C28.0494 29.5812 27.711 29.4329 27.4624 29.1775C27.2138 28.9221 27.0747 28.5797 27.0747 28.2233C27.0747 27.8669 27.2138 27.5246 27.4624 27.2692C27.711 27.0138 28.0494 26.8654 28.4057 26.8558ZM31.5727 26.8448C31.7554 26.8399 31.9372 26.8716 32.1074 26.9381C32.2777 27.0046 32.4329 27.1045 32.5638 27.232C32.6948 27.3595 32.7989 27.5119 32.87 27.6803C32.9411 27.8486 32.9777 28.0296 32.9777 28.2123C32.9777 28.3951 32.9411 28.576 32.87 28.7444C32.7989 28.9127 32.6948 29.0652 32.5638 29.1926C32.4329 29.3201 32.2777 29.42 32.1074 29.4865C31.9372 29.553 31.7554 29.5848 31.5727 29.5798C31.2164 29.5702 30.878 29.4219 30.6294 29.1665C30.3808 28.9111 30.2417 28.5687 30.2417 28.2123C30.2417 27.8559 30.3808 27.5136 30.6294 27.2582C30.878 27.0028 31.2164 26.8544 31.5727 26.8448ZM25.2977 27.4708C25.4046 27.4654 25.5116 27.4818 25.612 27.5191C25.7124 27.5563 25.8042 27.6135 25.8818 27.6873C25.9594 27.7611 26.0212 27.8499 26.0634 27.9483C26.1057 28.0468 26.1274 28.1527 26.1274 28.2598C26.1274 28.3669 26.1057 28.4729 26.0634 28.5713C26.0212 28.6697 25.9594 28.7585 25.8818 28.8323C25.8042 28.9061 25.7124 28.9633 25.612 29.0006C25.5116 29.0378 25.4046 29.0542 25.2977 29.0488C25.0953 29.0386 24.9046 28.951 24.7649 28.8042C24.6253 28.6573 24.5474 28.4625 24.5474 28.2598C24.5474 28.0572 24.6253 27.8623 24.7649 27.7154C24.9046 27.5686 25.0953 27.481 25.2977 27.4708ZM34.6947 27.4538C34.8007 27.45 34.9064 27.4677 35.0055 27.5056C35.1046 27.5436 35.195 27.6012 35.2714 27.6749C35.3477 27.7485 35.4085 27.8368 35.4499 27.9345C35.4914 28.0322 35.5128 28.1372 35.5128 28.2433C35.5128 28.3494 35.4914 28.4544 35.4499 28.5521C35.4085 28.6498 35.3477 28.7381 35.2714 28.8118C35.195 28.8855 35.1046 28.943 35.0055 28.981C34.9064 29.019 34.8007 29.0366 34.6947 29.0328C34.4902 29.0255 34.2964 28.9392 34.1543 28.7919C34.0122 28.6446 33.9328 28.448 33.9328 28.2433C33.9328 28.0387 34.0122 27.842 34.1543 27.6947C34.2964 27.5475 34.4902 27.4611 34.6947 27.4538ZM22.4877 26.0898C22.6342 26.0898 22.7748 26.148 22.8784 26.2516C22.982 26.3553 23.0402 26.4958 23.0402 26.6423C23.0402 26.7888 22.982 26.9294 22.8784 27.033C22.7748 27.1366 22.6342 27.1948 22.4877 27.1948C22.3412 27.1948 22.2006 27.1366 22.097 27.033C21.9934 26.9294 21.9352 26.7888 21.9352 26.6423C21.9352 26.4958 21.9934 26.3553 22.097 26.2516C22.2006 26.148 22.3412 26.0898 22.4877 26.0898ZM37.4917 26.0638C37.6382 26.0638 37.7787 26.122 37.8824 26.2256C37.986 26.3293 38.0442 26.4698 38.0442 26.6163C38.0442 26.7628 37.986 26.9034 37.8824 27.007C37.7787 27.1106 37.6382 27.1688 37.4917 27.1688C37.3452 27.1688 37.2046 27.1106 37.101 27.007C36.9974 26.9034 36.9392 26.7628 36.9392 26.6163C36.9392 26.4698 36.9974 26.3293 37.101 26.2256C37.2046 26.122 37.3452 26.0638 37.4917 26.0638ZM29.9837 24.7488C30.0906 24.7434 30.1976 24.7598 30.298 24.7971C30.3984 24.8343 30.4902 24.8915 30.5678 24.9653C30.6454 25.0391 30.7072 25.1279 30.7494 25.2263C30.7917 25.3248 30.8134 25.4307 30.8134 25.5378C30.8134 25.6449 30.7917 25.7509 30.7494 25.8493C30.7072 25.9477 30.6454 26.0365 30.5678 26.1103C30.4902 26.1841 30.3984 26.2413 30.298 26.2786C30.1976 26.3158 30.0906 26.3322 29.9837 26.3268C29.7813 26.3166 29.5906 26.229 29.4509 26.0822C29.3113 25.9353 29.2334 25.7405 29.2334 25.5378C29.2334 25.3352 29.3113 25.1403 29.4509 24.9934C29.5906 24.8466 29.7813 24.759 29.9837 24.7488ZM26.4687 24.1928C26.5606 24.1893 26.6524 24.2044 26.7384 24.2371C26.8244 24.2699 26.9029 24.3197 26.9692 24.3835C27.0355 24.4473 27.0882 24.5238 27.1242 24.6085C27.1603 24.6932 27.1788 24.7843 27.1788 24.8763C27.1788 24.9683 27.1603 25.0594 27.1242 25.1441C27.0882 25.2288 27.0355 25.3053 26.9692 25.3691C26.9029 25.4329 26.8244 25.4827 26.7384 25.5155C26.6524 25.5483 26.5606 25.5633 26.4687 25.5598C26.2919 25.5531 26.1247 25.4781 26.002 25.3506C25.8794 25.2232 25.8108 25.0532 25.8108 24.8763C25.8108 24.6994 25.8794 24.5294 26.002 24.402C26.1247 24.2745 26.2919 24.1996 26.4687 24.1928ZM33.5047 24.1828C33.6861 24.1828 33.8601 24.2549 33.9883 24.3832C34.1166 24.5114 34.1887 24.6854 34.1887 24.8668C34.1887 25.0482 34.1166 25.2222 33.9883 25.3505C33.8601 25.4787 33.6861 25.5508 33.5047 25.5508C33.3233 25.5508 33.1493 25.4787 33.021 25.3505C32.8928 25.2222 32.8207 25.0482 32.8207 24.8668C32.8207 24.6854 32.8928 24.5114 33.021 24.3832C33.1493 24.2549 33.3233 24.1828 33.5047 24.1828ZM25.2097 22.2588C25.3284 22.2588 25.4422 22.306 25.5261 22.3899C25.61 22.4738 25.6572 22.5876 25.6572 22.7063C25.6572 22.825 25.61 22.9388 25.5261 23.0227C25.4422 23.1067 25.3284 23.1538 25.2097 23.1538C25.091 23.1538 24.9772 23.1067 24.8933 23.0227C24.8093 22.9388 24.7622 22.825 24.7622 22.7063C24.7622 22.5876 24.8093 22.4738 24.8933 22.3899C24.9772 22.306 25.091 22.2588 25.2097 22.2588ZM34.7477 22.2288C34.8664 22.2288 34.9802 22.276 35.0641 22.3599C35.148 22.4438 35.1952 22.5576 35.1952 22.6763C35.1952 22.795 35.148 22.9088 35.0641 22.9927C34.9802 23.0767 34.8664 23.1238 34.7477 23.1238C34.6291 23.1238 34.5154 23.0767 34.4316 22.9929C34.3478 22.9091 34.3007 22.7954 34.3007 22.6768C34.3007 22.5583 34.3478 22.4446 34.4316 22.3607C34.5154 22.2769 34.6291 22.2288 34.7477 22.2288ZM29.9777 21.7388C30.1242 21.7388 30.2647 21.797 30.3684 21.9006C30.472 22.0043 30.5302 22.1448 30.5302 22.2913C30.5302 22.4378 30.472 22.5784 30.3684 22.682C30.2647 22.7856 30.1242 22.8438 29.9777 22.8438C29.8312 22.8438 29.6906 22.7856 29.587 22.682C29.4834 22.5784 29.4252 22.4378 29.4252 22.2913C29.4252 22.1448 29.4834 22.0043 29.587 21.9006C29.6906 21.797 29.8312 21.7388 29.9777 21.7388Z" fill="white"/>
</g>
<defs>
<linearGradient id="paint0_linear_101_1156" x1="41.553" y1="38.5711" x2="15.9847" y2="23.6461" gradientUnits="userSpaceOnUse">
<stop stop-color="#FF9400"/>
<stop offset="1" stop-color="#FFBB21"/>
</linearGradient>
<linearGradient id="paint1_linear_101_1156" x1="49.5297" y1="56.5572" x2="-5.58667" y2="-3.29264" gradientUnits="userSpaceOnUse">
<stop stop-color="#4A6EC3"/>
<stop offset="1" stop-color="#0033AD"/>
</linearGradient>
<clipPath id="clip0_101_1156">
<rect width="113" height="63" fill="white"/>
</clipPath>
</defs>
</svg>
