<svg width="136" height="63" viewBox="0 0 136 63" fill="none" xmlns="http://www.w3.org/2000/svg">
<g clip-path="url(#clip0_101_1194)">
<path d="M68.3067 39.0002H63.5979V24.4547H68.4559C69.8811 24.4547 71.105 24.7459 72.1277 25.3283C73.1505 25.906 73.9341 26.7369 74.4786 27.8212C75.0278 28.9008 75.3025 30.1957 75.3025 31.7062C75.3025 33.2213 75.0255 34.5234 74.4715 35.6124C73.9222 36.7014 73.1268 37.5395 72.0851 38.1266C71.0435 38.709 69.784 39.0002 68.3067 39.0002ZM65.7925 37.0826H68.186C69.2939 37.0826 70.2149 36.8743 70.9488 36.4576C71.6827 36.0362 72.2319 35.4278 72.5965 34.6323C72.9611 33.8321 73.1434 32.8567 73.1434 31.7062C73.1434 30.5651 72.9611 29.5968 72.5965 28.8013C72.2366 28.0059 71.6992 27.4022 70.9843 26.9903C70.2693 26.5783 69.3815 26.3724 68.3209 26.3724H65.7925V37.0826ZM78.3375 39.0002H76.008L81.2424 24.4547H83.7779L89.0123 39.0002H86.6827L82.5705 27.0968H82.4569L78.3375 39.0002ZM78.7282 33.3042H86.285V35.1508H78.7282V33.3042ZM98.7288 28.2758C98.653 27.6034 98.3405 27.0826 97.7913 26.7133C97.2421 26.3392 96.5508 26.1522 95.7174 26.1522C95.1209 26.1522 94.6048 26.2469 94.1691 26.4363C93.7335 26.6209 93.395 26.8766 93.1535 27.2033C92.9168 27.5253 92.7984 27.8922 92.7984 28.3042C92.7984 28.6498 92.8789 28.9481 93.0399 29.1991C93.2056 29.45 93.421 29.6607 93.6862 29.8312C93.9561 29.9969 94.2449 30.1366 94.5527 30.2502C94.8604 30.3591 95.1564 30.4491 95.4405 30.5201L96.8609 30.8894C97.3249 31.003 97.8008 31.1569 98.2885 31.3511C98.7762 31.5452 99.2283 31.8009 99.645 32.1181C100.062 32.4353 100.398 32.8283 100.654 33.2971C100.914 33.7658 101.044 34.3269 101.044 34.9803C101.044 35.8042 100.831 36.5357 100.405 37.1749C99.9835 37.8141 99.3704 38.3184 98.5655 38.6877C97.7653 39.057 96.797 39.2417 95.6606 39.2417C94.5716 39.2417 93.6294 39.0689 92.8339 38.7232C92.0385 38.3776 91.4158 37.8875 90.966 37.253C90.5162 36.6138 90.2676 35.8563 90.2203 34.9803H92.422C92.4646 35.5059 92.6351 35.9439 92.9334 36.2942C93.2364 36.6399 93.6223 36.8979 94.091 37.0684C94.5645 37.2341 95.083 37.317 95.6464 37.317C96.2667 37.317 96.8183 37.2199 97.3012 37.0258C97.7889 36.8269 98.1725 36.5523 98.4518 36.2019C98.7312 35.8468 98.8709 35.4325 98.8709 34.959C98.8709 34.5281 98.7477 34.1754 98.5015 33.9008C98.2601 33.6261 97.931 33.3989 97.5143 33.219C97.1024 33.039 96.636 32.8804 96.1152 32.7431L94.3964 32.2743C93.2316 31.9571 92.3084 31.4907 91.6265 30.8752C90.9495 30.2597 90.6109 29.4453 90.6109 28.432C90.6109 27.5939 90.8382 26.8624 91.2927 26.2374C91.7473 25.6124 92.3628 25.1271 93.1393 24.7814C93.9158 24.4311 94.7918 24.2559 95.7672 24.2559C96.752 24.2559 97.6209 24.4287 98.3737 24.7743C99.1313 25.12 99.7279 25.5958 100.164 26.2019C100.599 26.8032 100.826 27.4945 100.845 28.2758H98.7288ZM103.467 39.0002V24.4547H105.661V30.7758H112.913V24.4547H115.114V39.0002H112.913V32.6579H105.661V39.0002H103.467Z" fill="white"/>
<path fill-rule="evenodd" clip-rule="evenodd" d="M32.9997 13.155L46.3197 20.845C46.9277 21.1961 47.4327 21.701 47.7838 22.3091C48.1348 22.9172 48.3197 23.6069 48.3197 24.309V39.691C48.3197 40.3932 48.1348 41.0829 47.7838 41.691C47.4327 42.299 46.9277 42.804 46.3197 43.155L32.9997 50.845C32.3916 51.1961 31.7018 51.3809 30.9997 51.3809C30.2975 51.3809 29.6078 51.1961 28.9997 50.845L15.6797 43.155C15.0716 42.804 14.5667 42.299 14.2156 41.691C13.8645 41.0829 13.6797 40.3932 13.6797 39.691V24.309C13.6797 23.6069 13.8645 22.9172 14.2156 22.3091C14.5667 21.701 15.0716 21.1961 15.6797 20.845L28.9997 13.155C29.6078 12.804 30.2975 12.6191 30.9997 12.6191C31.7018 12.6191 32.3916 12.804 32.9997 13.155Z" fill="url(#paint0_linear_101_1194)"/>
<path fill-rule="evenodd" clip-rule="evenodd" d="M35.1958 38.4168C34.0198 38.8418 32.9288 38.6808 32.4438 38.6168C32.2048 38.5858 31.8008 38.5118 31.3698 38.4228L30.6548 41.0898L29.0128 40.6498L29.7157 38.0258L28.4657 37.6908L27.7628 40.3148L26.1208 39.8748L26.8237 37.2508L23.5938 36.3848L24.4598 34.5028L25.4417 34.7668C25.7717 34.8548 25.9177 34.8608 26.0907 34.7678C26.2637 34.6738 26.3478 34.4828 26.3908 34.3218L28.2108 27.5278C28.3258 27.1018 28.3217 26.9778 28.1847 26.7068C28.0477 26.4348 27.5947 26.2828 27.3358 26.2138L26.3868 25.9588L26.8438 24.2548L30.0737 25.1198L30.7787 22.4878L32.4207 22.9278L31.7157 25.5598L32.9658 25.8948L33.6717 23.2628L35.3138 23.7028L34.5998 26.3668C35.8038 26.7708 36.6527 27.2478 37.2897 28.0488C38.1147 29.0838 37.7078 30.3888 37.5998 30.6978C37.4928 31.0058 37.1927 31.5748 36.8117 31.8918C36.4307 32.2098 35.6507 32.4198 35.6507 32.4198C35.6507 32.4198 36.4027 32.8028 36.8507 33.3748C37.2967 33.9468 37.5128 34.8018 37.1968 35.8848C36.8828 36.9688 36.3698 37.9908 35.1958 38.4168ZM31.7878 32.7168C31.1775 32.5212 30.5581 32.3553 29.9318 32.2198L28.9878 35.7418C28.9878 35.7418 30.0708 36.0568 30.8148 36.1988C31.5578 36.3398 32.3587 36.3578 32.7907 36.2508C33.2207 36.1438 33.7607 35.9428 33.9767 35.1378C34.1927 34.3318 33.7468 33.8508 33.4798 33.6148C33.2148 33.3788 32.5868 32.9878 31.7878 32.7168ZM31.7348 30.9518C32.3398 31.0888 33.0138 31.1218 33.5418 30.9918C34.0698 30.8618 34.4378 30.5318 34.5828 29.9298C34.7278 29.3278 34.4647 28.7138 33.8447 28.3258C33.2247 27.9378 32.7768 27.8008 32.2648 27.6558C31.7528 27.5108 31.2188 27.4158 31.2188 27.4158L30.3687 30.5858C30.3687 30.5858 31.1308 30.8138 31.7348 30.9518Z" fill="white"/>
<path fill-rule="evenodd" clip-rule="evenodd" d="M32.9997 13.155L46.3197 20.845C46.9277 21.1961 47.4327 21.701 47.7838 22.3091C48.1348 22.9172 48.3197 23.6069 48.3197 24.309V39.691C48.3197 40.3932 48.1348 41.0829 47.7838 41.691C47.4327 42.299 46.9277 42.804 46.3197 43.155L32.9997 50.845C32.3916 51.1961 31.7018 51.3809 30.9997 51.3809C30.2975 51.3809 29.6078 51.1961 28.9997 50.845L15.6797 43.155C15.0716 42.804 14.5667 42.299 14.2156 41.691C13.8645 41.0829 13.6797 40.3932 13.6797 39.691V24.309C13.6797 23.6069 13.8645 22.9172 14.2156 22.3091C14.5667 21.701 15.0716 21.1961 15.6797 20.845L28.9997 13.155C29.6078 12.804 30.2975 12.6191 30.9997 12.6191C31.7018 12.6191 32.3916 12.804 32.9997 13.155Z" fill="url(#paint1_linear_101_1194)"/>
<path d="M32.7781 25.0039H26.2321L25.6901 28.0359L31.5951 28.0429C34.5041 28.0429 35.3641 29.0989 35.3391 30.8519C35.3271 31.7499 34.9371 33.2679 34.7691 33.7599C34.3211 35.0719 33.4001 36.5689 29.9491 36.5629L24.2081 36.5599L23.6641 39.5929H30.1941C32.4971 39.5929 33.4781 39.3249 34.5141 38.8459C36.8141 37.7839 38.1821 35.5139 38.7301 32.5519C39.5471 28.1419 38.5311 25.0039 32.7781 25.0039Z" fill="white"/>
<path d="M23.4079 30.7759C21.6939 30.7759 21.4479 31.8929 21.2859 32.5679C21.0739 33.4519 21.0039 33.8099 21.0039 33.8099H27.7039C29.4189 33.8099 29.6639 32.6929 29.8269 32.0179C30.0389 31.1339 30.1089 30.7759 30.1089 30.7759H23.4079Z" fill="white"/>
</g>
<defs>
<linearGradient id="paint0_linear_101_1194" x1="42.553" y1="39.5711" x2="16.9847" y2="24.6461" gradientUnits="userSpaceOnUse">
<stop stop-color="#FF9400"/>
<stop offset="1" stop-color="#FFBB21"/>
</linearGradient>
<linearGradient id="paint1_linear_101_1194" x1="13.6797" y1="12.6191" x2="52.9249" y2="47.3473" gradientUnits="userSpaceOnUse">
<stop stop-color="#12CEF7"/>
<stop offset="1" stop-color="#5766F2"/>
</linearGradient>
<clipPath id="clip0_101_1194">
<rect width="136" height="63" fill="white"/>
</clipPath>
</defs>
</svg>
