<svg width="113" height="63" viewBox="0 0 113 63" fill="none" xmlns="http://www.w3.org/2000/svg">
<g clip-path="url(#clip0_101_1035)">
<path d="M63.5979 38.0001V23.4546H72.7172V25.3439H65.7925V29.7757H72.2414V31.6578H65.7925V36.1109H72.8025V38.0001H63.5979ZM74.7314 25.3439V23.4546H85.9885V25.3439H81.4501V38.0001H79.2626V25.3439H74.7314ZM88.276 38.0001V23.4546H90.4706V29.7757H97.7221V23.4546H99.9238V38.0001H97.7221V31.6578H90.4706V38.0001H88.276Z" fill="white"/>
<path fill-rule="evenodd" clip-rule="evenodd" d="M32.9997 12.155L46.3197 19.845C46.9277 20.1961 47.4327 20.701 47.7838 21.3091C48.1348 21.9172 48.3197 22.6069 48.3197 23.309V38.691C48.3197 39.3932 48.1348 40.0829 47.7838 40.691C47.4327 41.299 46.9277 41.804 46.3197 42.155L32.9997 49.845C32.3916 50.1961 31.7018 50.3809 30.9997 50.3809C30.2975 50.3809 29.6078 50.1961 28.9997 49.845L15.6797 42.155C15.0716 41.804 14.5667 41.299 14.2156 40.691C13.8645 40.0829 13.6797 39.3932 13.6797 38.691V23.309C13.6797 22.6069 13.8645 21.9172 14.2156 21.3091C14.5667 20.701 15.0716 20.1961 15.6797 19.845L28.9997 12.155C29.6078 11.804 30.2975 11.6191 30.9997 11.6191C31.7018 11.6191 32.3916 11.804 32.9997 12.155Z" fill="url(#paint0_linear_101_1035)"/>
<path fill-rule="evenodd" clip-rule="evenodd" d="M35.1958 37.4168C34.0198 37.8418 32.9288 37.6808 32.4438 37.6168C32.2048 37.5858 31.8008 37.5118 31.3698 37.4228L30.6548 40.0898L29.0128 39.6498L29.7157 37.0258L28.4657 36.6908L27.7628 39.3148L26.1208 38.8748L26.8237 36.2508L23.5938 35.3848L24.4598 33.5028L25.4417 33.7668C25.7717 33.8548 25.9177 33.8608 26.0907 33.7678C26.2637 33.6738 26.3478 33.4828 26.3908 33.3218L28.2108 26.5278C28.3258 26.1018 28.3217 25.9778 28.1847 25.7068C28.0477 25.4348 27.5947 25.2828 27.3358 25.2138L26.3868 24.9588L26.8438 23.2548L30.0737 24.1198L30.7787 21.4878L32.4207 21.9278L31.7157 24.5598L32.9658 24.8948L33.6717 22.2628L35.3138 22.7028L34.5998 25.3668C35.8038 25.7708 36.6527 26.2478 37.2897 27.0488C38.1147 28.0838 37.7078 29.3888 37.5998 29.6978C37.4928 30.0058 37.1927 30.5748 36.8117 30.8918C36.4307 31.2098 35.6507 31.4198 35.6507 31.4198C35.6507 31.4198 36.4027 31.8028 36.8507 32.3748C37.2967 32.9468 37.5128 33.8018 37.1968 34.8848C36.8828 35.9688 36.3698 36.9908 35.1958 37.4168ZM31.7878 31.7168C31.1775 31.5212 30.5581 31.3553 29.9318 31.2198L28.9878 34.7418C28.9878 34.7418 30.0708 35.0568 30.8148 35.1988C31.5578 35.3398 32.3587 35.3578 32.7907 35.2508C33.2207 35.1438 33.7607 34.9428 33.9767 34.1378C34.1927 33.3318 33.7468 32.8508 33.4798 32.6148C33.2148 32.3788 32.5868 31.9888 31.7878 31.7178V31.7168ZM31.7348 29.9518C32.3398 30.0888 33.0138 30.1218 33.5418 29.9918C34.0698 29.8618 34.4378 29.5318 34.5828 28.9298C34.7278 28.3278 34.4647 27.7138 33.8447 27.3258C33.2247 26.9378 32.7768 26.8008 32.2648 26.6558C31.7528 26.5108 31.2188 26.4158 31.2188 26.4158L30.3687 29.5858C30.3687 29.5858 31.1308 29.8138 31.7348 29.9518Z" fill="white"/>
<path fill-rule="evenodd" clip-rule="evenodd" d="M32.9997 12.155L46.3197 19.845C46.9277 20.1961 47.4327 20.701 47.7838 21.3091C48.1348 21.9172 48.3197 22.6069 48.3197 23.309V38.691C48.3197 39.3932 48.1348 40.0829 47.7838 40.691C47.4327 41.299 46.9277 41.804 46.3197 42.155L32.9997 49.845C32.3916 50.1961 31.7018 50.3809 30.9997 50.3809C30.2975 50.3809 29.6078 50.1961 28.9997 49.845L15.6797 42.155C15.0716 41.804 14.5667 41.299 14.2156 40.691C13.8645 40.0829 13.6797 39.3932 13.6797 38.691V23.309C13.6797 22.6069 13.8645 21.9172 14.2156 21.3091C14.5667 20.701 15.0716 20.1961 15.6797 19.845L28.9997 12.155C29.6078 11.804 30.2975 11.6191 30.9997 11.6191C31.7018 11.6191 32.3916 11.804 32.9997 12.155Z" fill="url(#paint1_linear_101_1035)"/>
<path opacity="0.6" d="M30.9336 28.395L24.6016 31.186L30.9346 34.814L37.2626 31.186L30.9336 28.395Z" fill="#010101"/>
<path opacity="0.45" d="M24.6016 31.186L30.9346 34.814V21L24.6016 31.186Z" fill="#010101"/>
<path opacity="0.8" d="M30.9346 21V34.814L37.2646 31.186L30.9336 21H30.9346Z" fill="#010101"/>
<path opacity="0.45" d="M24.6016 32.3501L30.9346 41.0001V35.9771L24.6016 32.3501Z" fill="#010101"/>
<path opacity="0.8" d="M30.9336 35.9791V41.0001L37.2686 32.3501L30.9336 35.9791Z" fill="#010101"/>
</g>
<defs>
<linearGradient id="paint0_linear_101_1035" x1="42.553" y1="38.5711" x2="16.9847" y2="23.6461" gradientUnits="userSpaceOnUse">
<stop stop-color="#FF9400"/>
<stop offset="1" stop-color="#FFBB21"/>
</linearGradient>
<linearGradient id="paint1_linear_101_1035" x1="5.99968" y1="12" x2="59.2527" y2="41.034" gradientUnits="userSpaceOnUse">
<stop stop-color="white"/>
<stop offset="1" stop-color="#D6DAFF"/>
</linearGradient>
<clipPath id="clip0_101_1035">
<rect width="113" height="63" fill="white"/>
</clipPath>
</defs>
</svg>
