<svg width="113" height="63" viewBox="0 0 113 63" fill="none" xmlns="http://www.w3.org/2000/svg">
<g clip-path="url(#clip0_101_1101)">
<path d="M64.5979 38.0002V23.4547H66.7925V36.111H73.3834V38.0002H64.5979ZM73.0751 25.344V23.4547H84.3322V25.344H79.7939V38.0002H77.6064V25.344H73.0751ZM98.0758 28.1849H95.8598C95.7746 27.7114 95.616 27.2947 95.384 26.9349C95.152 26.575 94.8679 26.2696 94.5317 26.0187C94.1955 25.7677 93.8191 25.5783 93.4025 25.4505C92.9905 25.3226 92.5526 25.2587 92.0885 25.2587C91.2505 25.2587 90.5 25.4694 89.8371 25.8908C89.179 26.3122 88.6581 26.9301 88.2746 27.7445C87.8958 28.5589 87.7064 29.5532 87.7064 30.7275C87.7064 31.9112 87.8958 32.9102 88.2746 33.7246C88.6581 34.539 89.1813 35.1546 89.8442 35.5712C90.5071 35.9879 91.2528 36.1962 92.0814 36.1962C92.5407 36.1962 92.9763 36.1347 93.3883 36.0116C93.8049 35.8837 94.1813 35.6967 94.5175 35.4505C94.8537 35.2043 95.1378 34.9036 95.3698 34.5485C95.6065 34.1886 95.7699 33.7767 95.8598 33.3127L98.0758 33.3198C97.9574 34.0348 97.7277 34.6929 97.3868 35.2942C97.0507 35.8908 96.6174 36.4069 96.0871 36.8425C95.5615 37.2734 94.9602 37.6072 94.2831 37.844C93.6061 38.0807 92.8674 38.1991 92.0672 38.1991C90.8078 38.1991 89.6856 37.9008 88.7008 37.3042C87.7159 36.7029 86.9394 35.8435 86.3712 34.7261C85.8078 33.6086 85.526 32.2758 85.526 30.7275C85.526 29.1744 85.8101 27.8416 86.3783 26.7289C86.9465 25.6115 87.723 24.7545 88.7079 24.1579C89.6927 23.5565 90.8125 23.2559 92.0672 23.2559C92.839 23.2559 93.5587 23.3672 94.2263 23.5897C94.8987 23.8075 95.5024 24.1295 96.0374 24.5556C96.5724 24.977 97.0151 25.4931 97.3655 26.1039C97.7159 26.71 97.9526 27.4036 98.0758 28.1849Z" fill="white"/>
<path fill-rule="evenodd" clip-rule="evenodd" d="M33.9997 12.155L47.3197 19.845C47.9277 20.1961 48.4327 20.701 48.7838 21.3091C49.1348 21.9172 49.3197 22.6069 49.3197 23.309V38.691C49.3197 39.3932 49.1348 40.0829 48.7838 40.691C48.4327 41.299 47.9277 41.804 47.3197 42.155L33.9997 49.845C33.3916 50.1961 32.7018 50.3809 31.9997 50.3809C31.2975 50.3809 30.6078 50.1961 29.9997 49.845L16.6797 42.155C16.0716 41.804 15.5667 41.299 15.2156 40.691C14.8645 40.0829 14.6797 39.3932 14.6797 38.691V23.309C14.6797 22.6069 14.8645 21.9172 15.2156 21.3091C15.5667 20.701 16.0716 20.1961 16.6797 19.845L29.9997 12.155C30.6078 11.804 31.2975 11.6191 31.9997 11.6191C32.7018 11.6191 33.3916 11.804 33.9997 12.155Z" fill="url(#paint0_linear_101_1101)"/>
<path fill-rule="evenodd" clip-rule="evenodd" d="M36.1958 37.4168C35.0198 37.8418 33.9288 37.6808 33.4438 37.6168C33.2048 37.5858 32.8008 37.5118 32.3698 37.4228L31.6548 40.0898L30.0128 39.6498L30.7157 37.0258L29.4657 36.6908L28.7628 39.3148L27.1208 38.8748L27.8237 36.2508L24.5938 35.3848L25.4598 33.5028L26.4417 33.7668C26.7717 33.8548 26.9177 33.8608 27.0907 33.7678C27.2637 33.6738 27.3478 33.4828 27.3908 33.3218L29.2108 26.5278C29.3258 26.1018 29.3217 25.9778 29.1847 25.7068C29.0477 25.4348 28.5947 25.2828 28.3358 25.2138L27.3868 24.9588L27.8438 23.2548L31.0737 24.1198L31.7787 21.4878L33.4207 21.9278L32.7158 24.5598L33.9658 24.8948L34.6717 22.2628L36.3138 22.7028L35.5998 25.3668C36.8038 25.7708 37.6527 26.2478 38.2897 27.0488C39.1147 28.0838 38.7078 29.3888 38.5998 29.6978C38.4928 30.0058 38.1927 30.5748 37.8117 30.8918C37.4307 31.2098 36.6507 31.4198 36.6507 31.4198C36.6507 31.4198 37.4027 31.8028 37.8507 32.3748C38.2967 32.9468 38.5128 33.8018 38.1968 34.8848C37.8828 35.9688 37.3698 36.9908 36.1958 37.4168ZM32.7878 31.7168C32.1775 31.5212 31.5581 31.3553 30.9318 31.2198L29.9878 34.7418C29.9878 34.7418 31.0708 35.0568 31.8148 35.1988C32.5578 35.3398 33.3587 35.3578 33.7907 35.2508C34.2207 35.1438 34.7607 34.9428 34.9767 34.1378C35.1927 33.3318 34.7468 32.8508 34.4798 32.6148C34.2148 32.3788 33.5868 31.9888 32.7878 31.7178V31.7168ZM32.7347 29.9518C33.3397 30.0888 34.0138 30.1218 34.5418 29.9918C35.0698 29.8618 35.4378 29.5318 35.5828 28.9298C35.7278 28.3278 35.4647 27.7138 34.8447 27.3258C34.2247 26.9378 33.7768 26.8008 33.2648 26.6558C32.7528 26.5108 32.2188 26.4158 32.2188 26.4158L31.3687 29.5858C31.3687 29.5858 32.1307 29.8138 32.7347 29.9518Z" fill="white"/>
<path fill-rule="evenodd" clip-rule="evenodd" d="M33.9997 12.155L47.3197 19.845C47.9277 20.1961 48.4327 20.701 48.7838 21.3091C49.1348 21.9172 49.3197 22.6069 49.3197 23.309V38.691C49.3197 39.3932 49.1348 40.0829 48.7838 40.691C48.4327 41.299 47.9277 41.804 47.3197 42.155L33.9997 49.845C33.3916 50.1961 32.7018 50.3809 31.9997 50.3809C31.2975 50.3809 30.6078 50.1961 29.9997 49.845L16.6797 42.155C16.0716 41.804 15.5667 41.299 15.2156 40.691C14.8645 40.0829 14.6797 39.3932 14.6797 38.691V23.309C14.6797 22.6069 14.8645 21.9172 15.2156 21.3091C15.5667 20.701 16.0716 20.1961 16.6797 19.845L29.9997 12.155C30.6078 11.804 31.2975 11.6191 31.9997 11.6191C32.7018 11.6191 33.3916 11.804 33.9997 12.155Z" fill="url(#paint1_linear_101_1101)"/>
<path fill-rule="evenodd" clip-rule="evenodd" d="M32.227 31.308L30.807 36.092H38.397C38.627 36.092 38.793 36.257 38.793 36.488V36.587L38.133 38.864C38.103 38.9711 38.0379 39.065 37.9481 39.1307C37.8583 39.1963 37.7491 39.2299 37.638 39.226H26.024L27.97 32.595L25.793 33.255L26.288 31.737L28.465 31.077L31.204 21.772C31.2338 21.6647 31.2988 21.5706 31.3886 21.5047C31.4784 21.4389 31.5877 21.4052 31.699 21.409H34.635C34.866 21.409 35.031 21.574 35.031 21.805V21.905L32.721 29.757L34.899 29.097L34.437 30.681L32.227 31.308Z" fill="white"/>
</g>
<defs>
<linearGradient id="paint0_linear_101_1101" x1="43.553" y1="38.5711" x2="17.9847" y2="23.6461" gradientUnits="userSpaceOnUse">
<stop stop-color="#FF9400"/>
<stop offset="1" stop-color="#FFBB21"/>
</linearGradient>
<linearGradient id="paint1_linear_101_1101" x1="18.5677" y1="-14.228" x2="69.9561" y2="41.3963" gradientUnits="userSpaceOnUse">
<stop stop-color="white"/>
<stop offset="1" stop-color="#777777"/>
</linearGradient>
<clipPath id="clip0_101_1101">
<rect width="113" height="63" fill="white"/>
</clipPath>
</defs>
</svg>
