<svg width="254" height="63" viewBox="0 0 254 63" fill="none" xmlns="http://www.w3.org/2000/svg">
<g clip-path="url(#clip0_101_1178)">
<mask id="mask0_101_1178" style="mask-type:luminance" maskUnits="userSpaceOnUse" x="0" y="0" width="254" height="63">
<path d="M254 0H0V63H254V0Z" fill="white"/>
</mask>
<g mask="url(#mask0_101_1178)">
<path d="M32.9997 12.155L46.3197 19.845C46.9277 20.1961 47.4327 20.701 47.7838 21.3091C48.1348 21.9172 48.3197 22.6069 48.3197 23.309V38.691C48.3197 39.3932 48.1348 40.0829 47.7838 40.691C47.4327 41.299 46.9277 41.804 46.3197 42.155L32.9997 49.845C32.3916 50.1961 31.7018 50.3809 30.9997 50.3809C30.2975 50.3809 29.6078 50.1961 28.9997 49.845L15.6797 42.155C15.0716 41.804 14.5667 41.299 14.2156 40.691C13.8645 40.0829 13.6797 39.3932 13.6797 38.691V23.309C13.6797 22.6069 13.8645 21.9172 14.2156 21.3091C14.5667 20.701 15.0716 20.1961 15.6797 19.845L28.9997 12.155C29.6078 11.804 30.2975 11.6191 30.9997 11.6191C31.7018 11.6191 32.3916 11.804 32.9997 12.155Z" fill="white"/>
<path d="M65.6018 23.4211H68.2713L72.9126 34.7539H73.0835L77.7248 23.4211H80.3943V38H78.3014V27.4502H78.1661L73.8665 37.9786H72.1296L67.8299 27.4431H67.6947V38H65.6018V23.4211ZM84.6234 38H82.2885L87.5349 23.4211H90.0762L95.3226 38H92.9877L88.8661 26.0692H88.7522L84.6234 38ZM85.0149 32.2909H92.5891V34.1417H85.0149V32.2909ZM94.7858 25.3146V23.4211H106.069V25.3146H101.52V38H99.3275V25.3146H94.7858ZM110.561 23.4211V38H108.362V23.4211H110.561ZM125.673 28.1621H123.452C123.366 27.6875 123.207 27.2699 122.975 26.9092C122.742 26.5485 122.458 26.2424 122.121 25.9909C121.784 25.7394 121.406 25.5495 120.989 25.4214C120.576 25.2933 120.137 25.2292 119.672 25.2292C118.832 25.2292 118.08 25.4404 117.415 25.8628C116.756 26.2851 116.234 26.9045 115.849 27.7207C115.47 28.537 115.28 29.5336 115.28 30.7105C115.28 31.897 115.47 32.8983 115.849 33.7146C116.234 34.5309 116.758 35.1478 117.422 35.5654C118.087 35.9831 118.834 36.1919 119.665 36.1919C120.125 36.1919 120.562 36.1302 120.975 36.0068C121.392 35.8787 121.77 35.6912 122.106 35.4444C122.443 35.1976 122.728 34.8963 122.961 34.5404C123.198 34.1797 123.362 33.7668 123.452 33.3017L125.673 33.3088C125.554 34.0254 125.324 34.6851 124.982 35.2878C124.645 35.8858 124.211 36.4031 123.68 36.8397C123.153 37.2715 122.55 37.6061 121.872 37.8434C121.193 38.0807 120.453 38.1993 119.651 38.1993C118.388 38.1993 117.263 37.9003 116.276 37.3024C115.289 36.6997 114.511 35.8383 113.941 34.7183C113.377 33.5983 113.094 32.2624 113.094 30.7105C113.094 29.1539 113.379 27.818 113.949 26.7028C114.518 25.5828 115.296 24.7238 116.283 24.1258C117.271 23.5231 118.393 23.2218 119.651 23.2218C120.424 23.2218 121.145 23.3333 121.815 23.5563C122.488 23.7746 123.094 24.0973 123.63 24.5245C124.166 24.9468 124.61 25.4641 124.961 26.0763C125.312 26.6838 125.55 27.379 125.673 28.1621ZM133.658 30.7105C133.658 28.9261 133.893 27.2841 134.362 25.7845C134.832 24.2848 135.518 22.9014 136.42 21.6343H138.37C138.019 22.1041 137.692 22.6807 137.388 23.3641C137.084 24.0475 136.818 24.7973 136.591 25.6136C136.363 26.4251 136.185 27.2675 136.057 28.1407C135.929 29.0092 135.864 29.8658 135.864 30.7105C135.864 31.84 135.976 32.9838 136.199 34.1417C136.422 35.2997 136.723 36.3746 137.103 37.3664C137.483 38.3583 137.905 39.1675 138.37 39.7939H136.42C135.518 38.5268 134.832 37.1434 134.362 35.6437C133.893 34.1441 133.658 32.4997 133.658 30.7105ZM140.585 38V23.4211H145.781C146.916 23.4211 147.855 23.6275 148.6 24.0404C149.345 24.4533 149.903 25.018 150.273 25.7346C150.643 26.4465 150.828 27.2485 150.828 28.1407C150.828 29.0377 150.641 29.8444 150.266 30.561C149.896 31.2729 149.336 31.8377 148.586 32.2553C147.841 32.6682 146.904 32.8746 145.774 32.8746H142.201V31.0095H145.575C146.291 31.0095 146.873 30.8861 147.319 30.6394C147.765 30.3878 148.093 30.0461 148.301 29.6143C148.51 29.1824 148.615 28.6912 148.615 28.1407C148.615 27.5902 148.51 27.1014 148.301 26.6743C148.093 26.2472 147.763 25.9126 147.312 25.6706C146.866 25.4285 146.277 25.3075 145.546 25.3075H142.784V38H140.585ZM165.871 30.7105C165.871 32.2671 165.586 33.6054 165.016 34.7254C164.447 35.8407 163.666 36.6997 162.674 37.3024C161.687 37.9003 160.565 38.1993 159.307 38.1993C158.045 38.1993 156.918 37.9003 155.926 37.3024C154.939 36.6997 154.161 35.8383 153.591 34.7183C153.022 33.5983 152.737 32.2624 152.737 30.7105C152.737 29.1539 153.022 27.818 153.591 26.7028C154.161 25.5828 154.939 24.7238 155.926 24.1258C156.918 23.5231 158.045 23.2218 159.307 23.2218C160.565 23.2218 161.687 23.5231 162.674 24.1258C163.666 24.7238 164.447 25.5828 165.016 26.7028C165.586 27.818 165.871 29.1539 165.871 30.7105ZM163.692 30.7105C163.692 29.5241 163.5 28.5251 163.116 27.7136C162.736 26.8973 162.214 26.2804 161.55 25.8628C160.89 25.4404 160.143 25.2292 159.307 25.2292C158.467 25.2292 157.718 25.4404 157.058 25.8628C156.398 26.2804 155.876 26.8973 155.492 27.7136C155.112 28.5251 154.922 29.5241 154.922 30.7105C154.922 31.897 155.112 32.8983 155.492 33.7146C155.876 34.5261 156.398 35.1431 157.058 35.5654C157.718 35.9831 158.467 36.1919 159.307 36.1919C160.143 36.1919 160.89 35.9831 161.55 35.5654C162.214 35.1431 162.736 34.5261 163.116 33.7146C163.5 32.8983 163.692 31.897 163.692 30.7105ZM168.413 38V23.4211H170.612V36.1064H177.218V38H168.413ZM177.326 23.4211H179.824L183.633 30.0485H183.79L187.598 23.4211H190.097L184.807 32.2766V38H182.615V32.2766L177.326 23.4211ZM201.096 28.0268C200.958 27.595 200.773 27.2082 200.54 26.8665C200.312 26.52 200.04 26.2258 199.722 25.9838C199.404 25.737 199.041 25.5495 198.632 25.4214C198.229 25.2933 197.785 25.2292 197.301 25.2292C196.48 25.2292 195.74 25.4404 195.08 25.8628C194.421 26.2851 193.899 26.9045 193.514 27.7207C193.135 28.5322 192.945 29.5265 192.945 30.7034C192.945 31.8851 193.137 32.8841 193.521 33.7004C193.906 34.5166 194.432 35.1359 195.102 35.5583C195.771 35.9807 196.532 36.1919 197.387 36.1919C198.179 36.1919 198.87 36.0305 199.458 35.7078C200.051 35.3851 200.509 34.9295 200.832 34.341C201.16 33.7478 201.323 33.0502 201.323 32.2482L201.893 32.3549H197.721V30.5397H203.452V32.1983C203.452 33.4227 203.191 34.4858 202.669 35.3875C202.151 36.2844 201.435 36.9773 200.519 37.4661C199.608 37.9549 198.564 38.1993 197.387 38.1993C196.067 38.1993 194.909 37.8956 193.913 37.2881C192.921 36.6807 192.147 35.8193 191.592 34.7041C191.037 33.5841 190.759 32.2553 190.759 30.7177C190.759 29.555 190.921 28.5109 191.243 27.5855C191.566 26.66 192.019 25.8746 192.603 25.2292C193.191 24.579 193.882 24.0831 194.675 23.7414C195.472 23.395 196.343 23.2218 197.287 23.2218C198.075 23.2218 198.808 23.338 199.487 23.5706C200.17 23.8031 200.778 24.1329 201.309 24.5601C201.845 24.9872 202.289 25.495 202.64 26.0834C202.991 26.6672 203.229 27.315 203.352 28.0268H201.096ZM218.708 30.7105C218.708 32.2671 218.423 33.6054 217.853 34.7254C217.284 35.8407 216.503 36.6997 215.511 37.3024C214.524 37.9003 213.402 38.1993 212.144 38.1993C210.882 38.1993 209.755 37.9003 208.763 37.3024C207.776 36.6997 206.997 35.8383 206.428 34.7183C205.859 33.5983 205.574 32.2624 205.574 30.7105C205.574 29.1539 205.859 27.818 206.428 26.7028C206.997 25.5828 207.776 24.7238 208.763 24.1258C209.755 23.5231 210.882 23.2218 212.144 23.2218C213.402 23.2218 214.524 23.5231 215.511 24.1258C216.503 24.7238 217.284 25.5828 217.853 26.7028C218.423 27.818 218.708 29.1539 218.708 30.7105ZM216.529 30.7105C216.529 29.5241 216.337 28.5251 215.953 27.7136C215.573 26.8973 215.051 26.2804 214.387 25.8628C213.727 25.4404 212.98 25.2292 212.144 25.2292C211.304 25.2292 210.554 25.4404 209.895 25.8628C209.235 26.2804 208.713 26.8973 208.329 27.7136C207.949 28.5251 207.759 29.5241 207.759 30.7105C207.759 31.897 207.949 32.8983 208.329 33.7146C208.713 34.5261 209.235 35.1431 209.895 35.5654C210.554 35.9831 211.304 36.1919 212.144 36.1919C212.98 36.1919 213.727 35.9831 214.387 35.5654C215.051 35.1431 215.573 34.5261 215.953 33.7146C216.337 32.8983 216.529 31.897 216.529 30.7105ZM233.017 23.4211V38H230.995L223.584 27.3078H223.449V38H221.25V23.4211H223.286L230.703 34.1275H230.838V23.4211H233.017ZM239.947 30.7105C239.947 32.4997 239.712 34.1441 239.243 35.6437C238.773 37.1434 238.087 38.5268 237.185 39.7939H235.235C235.586 39.3241 235.913 38.7475 236.217 38.0641C236.521 37.3807 236.787 36.6332 237.014 35.8217C237.242 35.0054 237.42 34.1607 237.548 33.2875C237.676 32.4143 237.741 31.5553 237.741 30.7105C237.741 29.5858 237.629 28.4444 237.406 27.2865C237.183 26.1285 236.882 25.0536 236.502 24.0618C236.122 23.0699 235.7 22.2607 235.235 21.6343H237.185C238.087 22.9014 238.773 24.2848 239.243 25.7845C239.712 27.2841 239.947 28.9261 239.947 30.7105Z" fill="white"/>
<path d="M34.8721 27.8911C34.5614 27.7136 34.1619 27.7136 33.8068 27.8911L31.3211 29.3559L29.6345 30.288L27.1932 31.7528C26.8825 31.9303 26.483 31.9303 26.1279 31.7528L24.2193 30.5987C23.9086 30.4212 23.6867 30.0661 23.6867 29.6666V27.4473C23.6867 27.0922 23.8642 26.7371 24.2193 26.5152L26.1279 25.4055C26.4386 25.228 26.8381 25.228 27.1932 25.4055L29.1018 26.5595C29.4125 26.7371 29.6345 27.0922 29.6345 27.4917V28.9564L31.3211 27.9799V26.4708C31.3211 26.1157 31.1436 25.7606 30.7885 25.5387L27.2376 23.4525C26.9269 23.2749 26.5274 23.2749 26.1723 23.4525L22.5326 25.583C22.1775 25.7606 22 26.1157 22 26.4708V30.6431C22 30.9982 22.1775 31.3533 22.5326 31.5752L26.1279 33.6614C26.4386 33.8389 26.8381 33.8389 27.1932 33.6614L29.6345 32.241L31.3211 31.2645L33.7624 29.8441C34.0731 29.6666 34.4726 29.6666 34.8277 29.8441L36.7363 30.9538C37.047 31.1313 37.2689 31.4864 37.2689 31.8859V34.1052C37.2689 34.4603 37.0914 34.8154 36.7363 35.0374L34.8721 36.147C34.5614 36.3246 34.1619 36.3246 33.8068 36.147L31.8982 35.0374C31.5875 34.8598 31.3655 34.5047 31.3655 34.1052V32.6849L29.6789 33.6614V35.1261C29.6789 35.4812 29.8564 35.8363 30.2115 36.0582L33.8068 38.1444C34.1175 38.3219 34.517 38.3219 34.8721 38.1444L38.4674 36.0582C38.7781 35.8807 39 35.5256 39 35.1261V30.9094C39 30.5543 38.8225 30.1992 38.4674 29.9773L34.8721 27.8911Z" fill="#8247E5"/>
</g>
</g>
<defs>
<clipPath id="clip0_101_1178">
<rect width="254" height="63" fill="white"/>
</clipPath>
</defs>
</svg>
