<svg width="117" height="63" viewBox="0 0 117 63" fill="none" xmlns="http://www.w3.org/2000/svg">
<g clip-path="url(#clip0_101_1188)">
<path d="M65.125 23.4546L68.6051 29.1436H68.7188L72.1989 23.4546H74.7415L70.2102 30.7274L74.7699 38.0001H72.2131L68.7188 32.3893H68.6051L65.1108 38.0001H62.554L67.1918 30.7274L62.5824 23.4546H65.125ZM76.7183 23.4546H79.3817L84.0124 34.7615H84.1828L88.8135 23.4546H91.4768V38.0001H89.3888V27.4745H89.2538L84.9641 37.9788H83.2311L78.9413 27.4674H78.8064V38.0001H76.7183V23.4546ZM94.4675 38.0001V23.4546H99.6522C100.779 23.4546 101.714 23.6488 102.458 24.037C103.206 24.4253 103.764 24.9627 104.134 25.6492C104.503 26.3311 104.688 27.1194 104.688 28.0143C104.688 28.9045 104.501 29.6881 104.127 30.3652C103.757 31.0375 103.199 31.5607 102.45 31.9348C101.707 32.3088 100.772 32.4958 99.6451 32.4958H95.7175V30.6066H99.4462C100.156 30.6066 100.734 30.5048 101.179 30.3012C101.629 30.0976 101.958 29.8017 102.166 29.4135C102.375 29.0252 102.479 28.5588 102.479 28.0143C102.479 27.4651 102.372 26.9892 102.159 26.5867C101.951 26.1843 101.622 25.8765 101.172 25.6635C100.727 25.4456 100.142 25.3367 99.4178 25.3367H96.6621V38.0001H94.4675ZM101.648 31.4376L105.242 38.0001H102.742L99.219 31.4376H101.648Z" fill="white"/>
<path fill-rule="evenodd" clip-rule="evenodd" d="M32.9997 12.155L46.3197 19.845C46.9277 20.1961 47.4327 20.701 47.7838 21.3091C48.1348 21.9172 48.3197 22.6069 48.3197 23.309V38.691C48.3197 39.3932 48.1348 40.0829 47.7838 40.691C47.4327 41.299 46.9277 41.804 46.3197 42.155L32.9997 49.845C32.3916 50.1961 31.7018 50.3809 30.9997 50.3809C30.2975 50.3809 29.6078 50.1961 28.9997 49.845L15.6797 42.155C15.0716 41.804 14.5667 41.299 14.2156 40.691C13.8645 40.0829 13.6797 39.3932 13.6797 38.691V23.309C13.6797 22.6069 13.8645 21.9172 14.2156 21.3091C14.5667 20.701 15.0716 20.1961 15.6797 19.845L28.9997 12.155C29.6078 11.804 30.2975 11.6191 30.9997 11.6191C31.7018 11.6191 32.3916 11.804 32.9997 12.155Z" fill="url(#paint0_linear_101_1188)"/>
<path d="M24 26L26.5 28.5L31 33L38 26V35H41L40 37H38H35.5V31.5L31 36L26.5 31.5V37H24H22L21 35H24V26Z" fill="white"/>
</g>
<defs>
<linearGradient id="paint0_linear_101_1188" x1="42.553" y1="38.5711" x2="16.9847" y2="23.6461" gradientUnits="userSpaceOnUse">
<stop stop-color="#F26822"/>
<stop offset="1" stop-color="#F98D56"/>
</linearGradient>
<clipPath id="clip0_101_1188">
<rect width="117" height="63" fill="white"/>
</clipPath>
</defs>
</svg>
