<svg width="126" height="63" viewBox="0 0 126 63" fill="none" xmlns="http://www.w3.org/2000/svg">
<g clip-path="url(#clip0_101_1232)">
<mask id="mask0_101_1232" style="mask-type:luminance" maskUnits="userSpaceOnUse" x="0" y="0" width="126" height="63">
<path d="M126 0H0V63H126V0Z" fill="white"/>
</mask>
<g mask="url(#mask0_101_1232)">
<path fill-rule="evenodd" clip-rule="evenodd" d="M36.9997 12.155L50.3197 19.845C50.9277 20.1961 51.4327 20.701 51.7838 21.3091C52.1348 21.9172 52.3197 22.6069 52.3197 23.309V38.691C52.3197 39.3932 52.1348 40.0829 51.7838 40.691C51.4327 41.299 50.9277 41.804 50.3197 42.155L36.9997 49.845C36.3916 50.1961 35.7018 50.3809 34.9997 50.3809C34.2975 50.3809 33.6078 50.1961 32.9997 49.845L19.6797 42.155C19.0716 41.804 18.5667 41.299 18.2156 40.691C17.8645 40.0829 17.6797 39.3932 17.6797 38.691V23.309C17.6797 22.6069 17.8645 21.9172 18.2156 21.3091C18.5667 20.701 19.0716 20.1961 19.6797 19.845L32.9997 12.155C33.6078 11.804 34.2975 11.6191 34.9997 11.6191C35.7018 11.6191 36.3916 11.804 36.9997 12.155Z" fill="white"/>
<path d="M73.3214 37.9999H68.6018V23.421H73.4709C74.8994 23.421 76.1262 23.7128 77.1512 24.2966C78.1763 24.8755 78.9617 25.7084 79.5075 26.7952C80.058 27.8772 80.3333 29.1752 80.3333 30.6891C80.3333 32.2077 80.0556 33.5128 79.5004 34.6043C78.9499 35.6958 78.1526 36.5358 77.1085 37.1243C76.0645 37.708 74.8021 37.9999 73.3214 37.9999ZM70.8014 36.0779H73.2004C74.3109 36.0779 75.234 35.8691 75.9696 35.4514C76.7051 35.0291 77.2556 34.4192 77.6211 33.622C77.9865 32.8199 78.1692 31.8423 78.1692 30.6891C78.1692 29.5454 77.9865 28.5749 77.6211 27.7776C77.2604 26.9803 76.7218 26.3752 76.0051 25.9623C75.2885 25.5494 74.3987 25.343 73.3357 25.343H70.8014V36.0779ZM95.5321 30.7104C95.5321 32.267 95.2474 33.6053 94.6779 34.7253C94.1084 35.8406 93.3277 36.6996 92.3359 37.3023C91.3488 37.9002 90.2264 38.1992 88.9688 38.1992C87.7064 38.1992 86.5793 37.9002 85.5874 37.3023C84.6003 36.6996 83.822 35.8382 83.2525 34.7182C82.683 33.5982 82.3983 32.2623 82.3983 30.7104C82.3983 29.1538 82.683 27.8179 83.2525 26.7027C83.822 25.5827 84.6003 24.7237 85.5874 24.1257C86.5793 23.523 87.7064 23.2217 88.9688 23.2217C90.2264 23.2217 91.3488 23.523 92.3359 24.1257C93.3277 24.7237 94.1084 25.5827 94.6779 26.7027C95.2474 27.8179 95.5321 29.1538 95.5321 30.7104ZM93.3538 30.7104C93.3538 29.524 93.1616 28.525 92.7772 27.7135C92.3976 26.8972 91.8755 26.2803 91.2111 25.8627C90.5515 25.4403 89.804 25.2291 88.9688 25.2291C88.1288 25.2291 87.379 25.4403 86.7193 25.8627C86.0596 26.2803 85.5376 26.8972 85.1532 27.7135C84.7735 28.525 84.5837 29.524 84.5837 30.7104C84.5837 31.8969 84.7735 32.8982 85.1532 33.7145C85.5376 34.526 86.0596 35.143 86.7193 35.5653C87.379 35.983 88.1288 36.1918 88.9688 36.1918C89.804 36.1918 90.5515 35.983 91.2111 35.5653C91.8755 35.143 92.3976 34.526 92.7772 33.7145C93.1616 32.8982 93.3538 31.8969 93.3538 30.7104ZM96.7287 25.3145V23.421H108.012V25.3145H103.463V37.9999H101.27V25.3145H96.7287Z" fill="white"/>
<mask id="mask1_101_1232" style="mask-type:luminance" maskUnits="userSpaceOnUse" x="25" y="21" width="19" height="21">
<path d="M44 21H25V41.2064H44V21Z" fill="white"/>
</mask>
<g mask="url(#mask1_101_1232)">
<path d="M34.4997 25.2381C36.512 25.2381 38.1432 24.2894 38.1432 23.1191C38.1432 21.9487 36.512 21 34.4997 21C32.4874 21 30.8562 21.9487 30.8562 23.1191C30.8562 24.2894 32.4874 25.2381 34.4997 25.2381Z" fill="#E6007A"/>
<path d="M34.4997 41.204C36.512 41.204 38.1432 40.2552 38.1432 39.0849C38.1432 37.9146 36.512 36.9658 34.4997 36.9658C32.4874 36.9658 30.8562 37.9146 30.8562 39.0849C30.8562 40.2552 32.4874 41.204 34.4997 41.204Z" fill="#E6007A"/>
<path d="M29.4218 28.1711C30.428 26.4284 30.4214 24.5411 29.4072 23.9555C28.3931 23.3699 26.7553 24.3079 25.7491 26.0505C24.743 27.7932 24.7495 29.6805 25.7637 30.2661C26.7779 30.8517 28.4157 29.9137 29.4218 28.1711Z" fill="#E6007A"/>
<path d="M43.2481 36.153C44.2542 34.4104 44.2482 32.5233 43.2347 31.9382C42.2212 31.353 40.584 32.2913 39.5778 34.0339C38.5717 35.7766 38.5777 37.6636 39.5912 38.2488C40.6047 38.834 42.2419 37.8956 43.2481 36.153Z" fill="#E6007A"/>
<path d="M29.4077 38.2486C30.4219 37.663 30.4285 35.7757 29.4223 34.033C28.4162 32.2904 26.7784 31.3524 25.7642 31.938C24.75 32.5236 24.7435 34.4109 25.7496 36.1536C26.7557 37.8962 28.3935 38.8342 29.4077 38.2486Z" fill="#E6007A"/>
<path d="M43.2357 30.2659C44.2492 29.6808 44.2552 27.7937 43.249 26.0511C42.2429 24.3085 40.6057 23.3701 39.5922 23.9553C38.5786 24.5405 38.5727 26.4275 39.5788 28.1702C40.5849 29.9128 42.2222 30.8511 43.2357 30.2659Z" fill="#E6007A"/>
</g>
</g>
</g>
<defs>
<clipPath id="clip0_101_1232">
<rect width="126" height="63" fill="white"/>
</clipPath>
</defs>
</svg>
