<svg width="124" height="63" viewBox="0 0 124 63" fill="none" xmlns="http://www.w3.org/2000/svg">
<g clip-path="url(#clip0_99_58)">
<path fill-rule="evenodd" clip-rule="evenodd" d="M33.5208 12.5392L46.9792 20.2765C47.5935 20.6297 48.1038 21.1377 48.4585 21.7495C48.8132 22.3614 49 23.0553 49 23.7617V39.2383C49 39.9448 48.8132 40.6387 48.4585 41.2506C48.1038 41.8623 47.5935 42.3704 46.9792 42.7236L33.5208 50.4608C32.9064 50.8141 32.2094 51 31.5 51C30.7905 51 30.0936 50.8141 29.4792 50.4608L16.0208 42.7236C15.4064 42.3704 14.8962 41.8623 14.5415 41.2506C14.1867 40.6387 14 39.9448 14 39.2383V23.7617C14 23.0553 14.1867 22.3614 14.5415 21.7495C14.8962 21.1377 15.4064 20.6297 16.0208 20.2765L29.4792 12.5392C30.0936 12.186 30.7905 12 31.5 12C32.2094 12 32.9064 12.186 33.5208 12.5392Z" fill="url(#paint0_linear_99_58)"/>
<path d="M38.7433 26.9624C37.5771 24.489 35.5107 22.8122 32.9533 22.2671C31.2757 21.911 31.0916 21.911 29.4753 22.2671C27.859 22.6235 26.8565 23.1685 25.5472 24.3633C22.1509 27.5072 22.1509 33.3763 25.5472 36.5202C27.6749 38.4695 29.6185 39.0355 33.1989 38.7211C36.4928 38.4277 38.2318 38.8468 40.1549 40.4188C41.0347 41.1315 41.137 41.1735 40.871 40.6284C40.2777 39.4966 38.0886 38.1341 35.9404 37.5683C33.8126 37.0023 32.8511 36.3525 31.7667 34.7386L31.4189 34.2145L31.4598 35.1579L31.5212 36.1011L30.6619 36.0381C29.4548 35.9334 28.5137 35.4933 27.5112 34.5709C23.7672 31.1124 26.1814 24.8034 31.2348 24.8034C34.2218 24.8034 36.4928 26.9624 36.7178 30.0015L36.8201 31.2383L36.0631 31.1124C35.1425 30.9657 35.122 31.0706 36.0017 31.4688C36.9224 31.8671 37.5566 32.5588 38.0477 33.6697L38.4568 34.6338L38.8865 33.6907C39.2343 32.915 39.3161 32.3282 39.3161 30.4417C39.3161 28.3457 39.2547 28.0313 38.7433 26.9624Z" fill="#FF7800"/>
<path d="M37.2497 34.8643C37.5976 35.3464 37.8635 35.1579 37.6794 34.5499C37.618 34.2985 37.4134 34.1098 37.2497 34.1098C36.8815 34.1098 36.8815 34.3404 37.2497 34.8643Z" fill="#FF7800"/>
<path d="M35.8381 36.6251C36.4723 36.6251 36.5541 35.9124 35.9608 35.577C35.4289 35.3046 35.3266 35.3046 35.2038 35.6818C34.9993 36.2058 35.2857 36.6251 35.8381 36.6251Z" fill="#FF7800"/>
</g>
<path d="M70.946 33.7841H73.1051L74.625 35.7656L75.3423 36.6463L77.7642 39.8068H75.5199L73.9006 37.6974L73.3466 36.9304L70.946 33.7841ZM78.233 31.2273C78.233 32.7803 77.9489 34.1155 77.3807 35.233C76.8125 36.3456 76.0336 37.2027 75.044 37.804C74.0592 38.4006 72.9394 38.6989 71.6847 38.6989C70.4252 38.6989 69.3007 38.4006 68.3111 37.804C67.3262 37.2027 66.5497 36.3433 65.9815 35.2259C65.4134 34.1084 65.1293 32.7756 65.1293 31.2273C65.1293 29.6742 65.4134 28.3414 65.9815 27.2287C66.5497 26.1113 67.3262 25.2543 68.3111 24.6577C69.3007 24.0563 70.4252 23.7557 71.6847 23.7557C72.9394 23.7557 74.0592 24.0563 75.044 24.6577C76.0336 25.2543 76.8125 26.1113 77.3807 27.2287C77.9489 28.3414 78.233 29.6742 78.233 31.2273ZM76.0597 31.2273C76.0597 30.0436 75.8679 29.0469 75.4844 28.2372C75.1056 27.4228 74.5848 26.8073 73.9219 26.3906C73.2637 25.9692 72.518 25.7585 71.6847 25.7585C70.8466 25.7585 70.0985 25.9692 69.4403 26.3906C68.7822 26.8073 68.2614 27.4228 67.8778 28.2372C67.4991 29.0469 67.3097 30.0436 67.3097 31.2273C67.3097 32.411 67.4991 33.41 67.8778 34.2244C68.2614 35.0341 68.7822 35.6496 69.4403 36.071C70.0985 36.4877 70.8466 36.696 71.6847 36.696C72.518 36.696 73.2637 36.4877 73.9219 36.071C74.5848 35.6496 75.1056 35.0341 75.4844 34.2244C75.8679 33.41 76.0597 32.411 76.0597 31.2273ZM83.1637 23.9545V38.5H80.9691V23.9545H83.1637ZM89.2077 38.5L85.1737 23.9545H87.4819L90.3157 35.2188H90.4506L93.3981 23.9545H95.685L98.6325 35.2259H98.7674L101.594 23.9545H103.909L99.8683 38.5H97.6594L94.5984 27.6051H94.4847L91.4237 38.5H89.2077ZM108.105 23.9545V38.5H105.911V23.9545H108.105Z" fill="white"/>
<defs>
<linearGradient id="paint0_linear_99_58" x1="14" y1="12" x2="53.5063" y2="47.1068" gradientUnits="userSpaceOnUse">
<stop stop-color="#333333"/>
<stop offset="1" stop-color="#303030"/>
</linearGradient>
<clipPath id="clip0_99_58">
<rect width="35" height="39" fill="white" transform="translate(14 12)"/>
</clipPath>
</defs>
</svg>
