<svg width="113" height="63" viewBox="0 0 113 63" fill="none" xmlns="http://www.w3.org/2000/svg">
<g clip-path="url(#clip0_101_1091)">
<path d="M71.5312 27.2758C71.4555 26.6034 71.143 26.0826 70.5938 25.7133C70.0445 25.3392 69.3532 25.1522 68.5199 25.1522C67.9233 25.1522 67.4072 25.2469 66.9716 25.4363C66.536 25.6209 66.1974 25.8766 65.956 26.2033C65.7192 26.5253 65.6009 26.8922 65.6009 27.3042C65.6009 27.6498 65.6813 27.9481 65.8423 28.1991C66.008 28.45 66.2235 28.6607 66.4886 28.8312C66.7585 28.9969 67.0473 29.1366 67.3551 29.2502C67.6629 29.3591 67.9588 29.4491 68.2429 29.5201L69.6634 29.8894C70.1274 30.003 70.6032 30.1569 71.0909 30.3511C71.5786 30.5452 72.0308 30.8009 72.4474 31.1181C72.8641 31.4353 73.2003 31.8283 73.456 32.2971C73.7164 32.7658 73.8466 33.3269 73.8466 33.9803C73.8466 34.8042 73.6335 35.5357 73.2074 36.1749C72.786 36.8141 72.1728 37.3184 71.3679 37.6877C70.5677 38.057 69.5994 38.2417 68.4631 38.2417C67.3741 38.2417 66.4318 38.0689 65.6364 37.7232C64.8409 37.3776 64.2183 36.8875 63.7685 36.253C63.3187 35.6138 63.0701 34.8563 63.0227 33.9803H65.2244C65.267 34.5059 65.4375 34.9439 65.7358 35.2942C66.0388 35.6399 66.4247 35.8979 66.8935 36.0684C67.367 36.2341 67.8854 36.317 68.4489 36.317C69.0691 36.317 69.6207 36.2199 70.1037 36.0258C70.5914 35.8269 70.9749 35.5523 71.2543 35.2019C71.5336 34.8468 71.6733 34.4325 71.6733 33.959C71.6733 33.5281 71.5502 33.1754 71.304 32.9008C71.0625 32.6261 70.7334 32.3989 70.3168 32.219C69.9048 32.039 69.4384 31.8804 68.9176 31.7431L67.1989 31.2743C66.0341 30.9571 65.1108 30.4907 64.429 29.8752C63.7519 29.2597 63.4134 28.4453 63.4134 27.432C63.4134 26.5939 63.6406 25.8624 64.0952 25.2374C64.5497 24.6124 65.1652 24.1271 65.9418 23.7814C66.7183 23.4311 67.5942 23.2559 68.5696 23.2559C69.5545 23.2559 70.4233 23.4287 71.1761 23.7743C71.9337 24.12 72.5303 24.5958 72.9659 25.2019C73.4015 25.8032 73.6288 26.4945 73.6477 27.2758H71.5312ZM88.904 30.7275C88.904 32.2805 88.62 33.6157 88.0518 34.7332C87.4836 35.8458 86.7047 36.7029 85.7151 37.3042C84.7303 37.9008 83.6105 38.1991 82.3558 38.1991C81.0963 38.1991 79.9718 37.9008 78.9822 37.3042C77.9973 36.7029 77.2208 35.8435 76.6526 34.7261C76.0844 33.6086 75.8004 32.2758 75.8004 30.7275C75.8004 29.1744 76.0844 27.8416 76.6526 26.7289C77.2208 25.6115 77.9973 24.7545 78.9822 24.1579C79.9718 23.5565 81.0963 23.2559 82.3558 23.2559C83.6105 23.2559 84.7303 23.5565 85.7151 24.1579C86.7047 24.7545 87.4836 25.6115 88.0518 26.7289C88.62 27.8416 88.904 29.1744 88.904 30.7275ZM86.7308 30.7275C86.7308 29.5438 86.539 28.5471 86.1555 27.7374C85.7767 26.923 85.2558 26.3075 84.593 25.8908C83.9348 25.4694 83.1891 25.2587 82.3558 25.2587C81.5177 25.2587 80.7696 25.4694 80.1114 25.8908C79.4533 26.3075 78.9325 26.923 78.5489 27.7374C78.1701 28.5471 77.9808 29.5438 77.9808 30.7275C77.9808 31.9112 78.1701 32.9102 78.5489 33.7246C78.9325 34.5343 79.4533 35.1498 80.1114 35.5712C80.7696 35.9879 81.5177 36.1962 82.3558 36.1962C83.1891 36.1962 83.9348 35.9879 84.593 35.5712C85.2558 35.1498 85.7767 34.5343 86.1555 33.7246C86.539 32.9102 86.7308 31.9112 86.7308 30.7275ZM91.4402 38.0002V23.4547H93.6348V36.111H100.226V38.0002H91.4402Z" fill="white"/>
<path fill-rule="evenodd" clip-rule="evenodd" d="M32.9997 12.155L46.3197 19.845C46.9277 20.1961 47.4327 20.701 47.7838 21.3091C48.1348 21.9172 48.3197 22.6069 48.3197 23.309V38.691C48.3197 39.3932 48.1348 40.0829 47.7838 40.691C47.4327 41.299 46.9277 41.804 46.3197 42.155L32.9997 49.845C32.3916 50.1961 31.7018 50.3809 30.9997 50.3809C30.2975 50.3809 29.6078 50.1961 28.9997 49.845L15.6797 42.155C15.0716 41.804 14.5667 41.299 14.2156 40.691C13.8645 40.0829 13.6797 39.3932 13.6797 38.691V23.309C13.6797 22.6069 13.8645 21.9172 14.2156 21.3091C14.5667 20.701 15.0716 20.1961 15.6797 19.845L28.9997 12.155C29.6078 11.804 30.2975 11.6191 30.9997 11.6191C31.7018 11.6191 32.3916 11.804 32.9997 12.155Z" fill="url(#paint0_linear_101_1091)"/>
<path fill-rule="evenodd" clip-rule="evenodd" d="M35.1958 37.4168C34.0198 37.8418 32.9288 37.6808 32.4438 37.6168C32.2048 37.5858 31.8008 37.5118 31.3698 37.4228L30.6548 40.0898L29.0128 39.6498L29.7157 37.0258L28.4657 36.6908L27.7628 39.3148L26.1208 38.8748L26.8237 36.2508L23.5938 35.3848L24.4598 33.5028L25.4417 33.7668C25.7717 33.8548 25.9177 33.8608 26.0907 33.7678C26.2637 33.6738 26.3478 33.4828 26.3908 33.3218L28.2108 26.5278C28.3258 26.1018 28.3217 25.9778 28.1847 25.7068C28.0477 25.4348 27.5947 25.2828 27.3358 25.2138L26.3868 24.9588L26.8438 23.2548L30.0737 24.1198L30.7787 21.4878L32.4207 21.9278L31.7157 24.5598L32.9658 24.8948L33.6717 22.2628L35.3138 22.7028L34.5998 25.3668C35.8038 25.7708 36.6527 26.2478 37.2897 27.0488C38.1147 28.0838 37.7078 29.3888 37.5998 29.6978C37.4928 30.0058 37.1927 30.5748 36.8117 30.8918C36.4307 31.2098 35.6507 31.4198 35.6507 31.4198C35.6507 31.4198 36.4027 31.8028 36.8507 32.3748C37.2967 32.9468 37.5128 33.8018 37.1968 34.8848C36.8828 35.9688 36.3698 36.9908 35.1958 37.4168ZM31.7878 31.7168C31.1775 31.5212 30.5581 31.3553 29.9318 31.2198L28.9878 34.7418C28.9878 34.7418 30.0708 35.0568 30.8148 35.1988C31.5578 35.3398 32.3587 35.3578 32.7907 35.2508C33.2207 35.1438 33.7607 34.9428 33.9767 34.1378C34.1927 33.3318 33.7468 32.8508 33.4798 32.6148C33.2148 32.3788 32.5868 31.9888 31.7878 31.7178V31.7168ZM31.7348 29.9518C32.3398 30.0888 33.0138 30.1218 33.5418 29.9918C34.0698 29.8618 34.4378 29.5318 34.5828 28.9298C34.7278 28.3278 34.4647 27.7138 33.8447 27.3258C33.2247 26.9378 32.7768 26.8008 32.2648 26.6558C31.7528 26.5108 31.2188 26.4158 31.2188 26.4158L30.3687 29.5858C30.3687 29.5858 31.1308 29.8138 31.7348 29.9518Z" fill="white"/>
<path d="M32.937 11.5528L46.683 19.4888C47.3105 19.8511 47.8317 20.3722 48.194 20.9998C48.5563 21.6273 48.747 22.3392 48.747 23.0638V38.9358C48.747 39.6604 48.5563 40.3723 48.194 40.9998C47.8317 41.6274 47.3105 42.1485 46.683 42.5108L32.937 50.4468C32.3096 50.8089 31.5979 50.9996 30.8735 50.9996C30.1491 50.9996 29.4374 50.8089 28.81 50.4468L15.064 42.5108C14.4365 42.1485 13.9153 41.6274 13.553 40.9998C13.1907 40.3723 13 39.6604 13 38.9358V23.0638C13 21.5888 13.787 20.2258 15.064 19.4888L28.81 11.5528C29.4374 11.1907 30.1491 11 30.8735 11C31.5979 11 32.3096 11.1907 32.937 11.5528Z" fill="url(#paint1_linear_101_1091)"/>
<path d="M23.9317 35.093C23.9941 35.0307 24.0681 34.9813 24.1496 34.9476C24.2311 34.914 24.3185 34.8968 24.4067 34.897H40.8237C41.1237 34.897 41.2727 35.259 41.0607 35.47L37.8167 38.712C37.6909 38.8375 37.5204 38.908 37.3427 38.908H20.9247C20.8584 38.9077 20.7937 38.8879 20.7386 38.851C20.6836 38.814 20.6407 38.7617 20.6154 38.7004C20.59 38.6391 20.5834 38.5718 20.5962 38.5067C20.6091 38.4417 20.6409 38.382 20.6877 38.335L23.9317 35.093Z" fill="url(#paint2_linear_101_1091)"/>
<path d="M23.9317 22.9831C23.9941 22.9208 24.0681 22.8714 24.1496 22.8377C24.2311 22.8041 24.3185 22.7869 24.4067 22.7871H40.8237C41.1237 22.7871 41.2727 23.1491 41.0607 23.3601L37.8167 26.6021C37.6908 26.7275 37.5204 26.798 37.3427 26.7981H20.9247C20.8584 26.7979 20.7937 26.778 20.7386 26.7411C20.6836 26.7042 20.6407 26.6518 20.6154 26.5905C20.59 26.5293 20.5834 26.4619 20.5962 26.3969C20.6091 26.3318 20.6409 26.2721 20.6877 26.2251L23.9317 22.9831Z" fill="url(#paint3_linear_101_1091)"/>
<path d="M37.8142 29.0002C37.6884 28.8747 37.5179 28.8042 37.3402 28.8042H20.9222C20.6232 28.8042 20.4732 29.1652 20.6852 29.3772L23.9292 32.6182C23.9916 32.6806 24.0656 32.7302 24.1471 32.764C24.2286 32.7978 24.316 32.8152 24.4042 32.8152H40.8212C41.1212 32.8152 41.2702 32.4532 41.0582 32.2422L37.8142 29.0002Z" fill="url(#paint4_linear_101_1091)"/>
</g>
<defs>
<linearGradient id="paint0_linear_101_1091" x1="42.553" y1="38.5711" x2="16.9847" y2="23.6461" gradientUnits="userSpaceOnUse">
<stop stop-color="#FF9400"/>
<stop offset="1" stop-color="#FFBB21"/>
</linearGradient>
<linearGradient id="paint1_linear_101_1091" x1="-10.124" y1="70.5718" x2="37.188" y2="86.0038" gradientUnits="userSpaceOnUse">
<stop stop-color="#1A1A1A"/>
<stop offset="1"/>
</linearGradient>
<linearGradient id="paint2_linear_101_1091" x1="-77.6813" y1="17.215" x2="-77.6983" y2="39.195" gradientUnits="userSpaceOnUse">
<stop stop-color="#00FFA3"/>
<stop offset="1" stop-color="#DC1FFF"/>
</linearGradient>
<linearGradient id="paint3_linear_101_1091" x1="-77.6813" y1="17.2151" x2="-77.6983" y2="39.1951" gradientUnits="userSpaceOnUse">
<stop stop-color="#00FFA3"/>
<stop offset="1" stop-color="#DC1FFF"/>
</linearGradient>
<linearGradient id="paint4_linear_101_1091" x1="-77.6838" y1="17.2152" x2="-77.7008" y2="39.1962" gradientUnits="userSpaceOnUse">
<stop stop-color="#00FFA3"/>
<stop offset="1" stop-color="#DC1FFF"/>
</linearGradient>
<clipPath id="clip0_101_1091">
<rect width="113" height="63" fill="white"/>
</clipPath>
</defs>
</svg>
