<svg width="213" height="63" viewBox="0 0 213 63" fill="none" xmlns="http://www.w3.org/2000/svg">
<path fill-rule="evenodd" clip-rule="evenodd" d="M33.32 12.5359L46.64 20.2259C47.248 20.577 47.753 21.0819 48.1041 21.69C48.4551 22.2981 48.64 22.9878 48.64 23.6899V39.0719C48.64 39.7741 48.4551 40.4638 48.1041 41.0719C47.753 41.6799 47.248 42.1849 46.64 42.5359L33.32 50.2259C32.7119 50.577 32.0221 50.7618 31.32 50.7618C30.6178 50.7618 29.9281 50.577 29.32 50.2259L16 42.5359C15.3919 42.1849 14.887 41.6799 14.5359 41.0719C14.1848 40.4638 14 39.7741 14 39.0719V23.6899C14 22.9878 14.1848 22.2981 14.5359 21.69C14.887 21.0819 15.3919 20.577 16 20.2259L29.32 12.5359C29.9281 12.1849 30.6178 12 31.32 12C32.0221 12 32.7119 12.1849 33.32 12.5359Z" fill="url(#paint0_linear_86_67)"/>
<path d="M32.8377 29.5067V27.7107H36.9477V24.9707H25.7547V27.7107H29.8667V29.5067C26.5247 29.6597 24.0117 30.3217 24.0117 31.1147C24.0117 31.9077 26.5257 32.5697 29.8667 32.7237V38.4827H32.8397V32.7227C36.1747 32.5697 38.6817 31.9077 38.6817 31.1157C38.6817 30.3237 36.1747 29.6627 32.8397 29.5087L32.8377 29.5067ZM32.8397 32.2357V32.2337C32.7557 32.2397 32.3247 32.2657 31.3647 32.2657C30.5977 32.2657 30.0577 32.2437 29.8677 32.2337V32.2357C26.9157 32.1057 24.7117 31.5907 24.7117 30.9757C24.7117 30.3607 26.9157 29.8477 29.8677 29.7157V31.7237C30.0607 31.7367 30.6137 31.7697 31.3777 31.7697C32.2937 31.7697 32.7547 31.7317 32.8397 31.7237V29.7167C35.7857 29.8477 37.9847 30.3627 37.9847 30.9757C37.9847 31.5877 35.7847 32.1037 32.8397 32.2357Z" fill="white"/>
<path d="M47.8306 40.5214C47.2929 40.1463 46.7053 39.7337 46.1427 39.3336C46.1302 39.3211 46.1177 39.3086 46.1052 39.3086C46.0427 39.2586 45.9676 39.2086 45.8801 39.1836H45.8676C44.3548 38.821 42.8169 38.4459 41.3291 38.0708C39.9788 37.7458 38.6285 37.4082 37.2782 37.0831C37.2407 37.0706 37.2032 37.0581 37.1657 37.0581C37.0406 37.0206 36.9031 36.9831 36.7531 37.0081C36.7031 37.0206 36.6656 37.0331 36.6406 37.0581L36.603 37.0956C36.5405 37.1581 36.5155 37.2206 36.4905 37.2707L36.478 37.2957V37.4457L36.4905 37.4707C37.3407 39.8712 38.2159 42.3093 39.0661 44.6598C39.7162 46.4727 40.3914 48.3481 41.054 50.1986C41.0916 50.3236 41.2166 50.4111 41.3541 50.4236H41.3916C41.5292 50.4236 41.6417 50.3611 41.7042 50.2486L44.1797 46.6228C44.7799 45.7476 45.3925 44.8599 45.9927 43.9722C46.2427 43.6096 46.4928 43.247 46.7303 42.8844C47.1429 42.2843 47.5555 41.6716 47.9681 41.0715L47.9931 41.034V40.9965C48.0056 40.8715 48.0181 40.6464 47.8306 40.5214ZM44.9299 41.8467C44.3423 42.1468 43.7546 42.4593 43.1545 42.7719L44.2048 41.6466C44.6424 41.1715 45.0925 40.6839 45.5426 40.2088L45.5551 40.1963C45.5926 40.1463 45.6426 40.0963 45.6926 40.0463L45.8051 39.9338C46.0427 40.0963 46.2677 40.2588 46.4928 40.4214C46.6553 40.5339 46.8178 40.6589 46.9929 40.7714C46.2802 41.134 45.5926 41.4966 44.9299 41.8467ZM43.4421 41.6967C42.992 42.1843 42.5294 42.6844 42.0668 43.172C41.1791 42.0842 40.2664 40.984 39.3787 39.9213C38.9786 39.4336 38.5785 38.946 38.1784 38.4709C38.0909 38.3709 38.0034 38.2584 37.9158 38.1459C37.8533 38.0708 37.8033 38.0083 37.7408 37.9333C38.1034 38.0333 38.466 38.1208 38.8285 38.1959C39.1411 38.2709 39.4787 38.3459 39.7913 38.4334C41.6042 38.871 43.4171 39.3211 45.23 39.7587C44.6298 40.4089 44.0297 41.059 43.4421 41.6967ZM41.8667 47.8105C41.9042 47.4855 41.9417 47.1479 41.9667 46.8103C41.9918 46.5477 42.0293 46.2727 42.0543 46.0101C42.1043 45.5975 42.1418 45.1599 42.1793 44.7348L42.1918 44.6598C42.2293 44.3848 42.2543 44.1097 42.2793 43.8346C42.3168 43.8096 42.3543 43.7971 42.3918 43.7846C42.4419 43.7596 42.4919 43.7471 42.5294 43.7096C43.2545 43.3345 43.9797 42.9469 44.7049 42.5718C45.43 42.1968 46.1677 41.8092 46.9054 41.4216C46.2302 42.3968 45.5676 43.372 44.9174 44.3347C44.3548 45.1474 43.7797 45.9976 43.2045 46.8228C42.9795 47.1604 42.7419 47.498 42.5169 47.823C42.2668 48.1856 42.0043 48.5607 41.7542 48.9358C41.7917 48.5607 41.8292 48.1731 41.8667 47.8105ZM37.5032 38.671C37.4657 38.5584 37.4157 38.4459 37.3782 38.3334C38.2284 39.3586 39.0786 40.3839 39.9038 41.3841C40.3289 41.8967 40.7665 42.4218 41.1916 42.9344C41.2791 43.0345 41.3666 43.1345 41.4416 43.2345C41.5542 43.3595 41.6542 43.4971 41.7667 43.6221C41.7292 43.9472 41.6917 44.2722 41.6667 44.5848C41.6417 44.8099 41.6167 45.0224 41.5917 45.2474C41.5792 45.385 41.5667 45.535 41.5417 45.6725C41.5166 45.8601 41.4666 46.2977 41.4666 46.2977V46.3227C41.4041 46.9603 41.3416 47.598 41.2791 48.2231C41.2541 48.4857 41.2291 48.7482 41.1916 49.0108C41.1791 48.9608 41.1541 48.9108 41.1416 48.8733C41.0916 48.7482 41.0415 48.6107 41.004 48.4857L40.6665 47.548C39.6287 44.5848 38.566 41.6341 37.5032 38.671Z" fill="#EC0928"/>
<path d="M73.0152 24.0878H75.222V33.6766C75.222 34.6969 74.9823 35.601 74.503 36.3887C74.0237 37.1718 73.3498 37.7887 72.4813 38.2396C71.6128 38.6857 70.5949 38.9087 69.4274 38.9087C68.2647 38.9087 67.2491 38.6857 66.3807 38.2396C65.5122 37.7887 64.8383 37.1718 64.359 36.3887C63.8796 35.601 63.64 34.6969 63.64 33.6766V24.0878H65.8396V33.4986C65.8396 34.1582 65.9844 34.7443 66.2739 35.2569C66.5681 35.7694 66.9834 36.1728 67.5196 36.467C68.0559 36.7565 68.6918 36.9013 69.4274 36.9013C70.1678 36.9013 70.8061 36.7565 71.3423 36.467C71.8833 36.1728 72.2962 35.7694 72.581 35.2569C72.8705 34.7443 73.0152 34.1582 73.0152 33.4986V24.0878ZM86.171 27.9176C86.0951 27.2437 85.7819 26.7217 85.2314 26.3515C84.6809 25.9766 83.988 25.7891 83.1527 25.7891C82.5548 25.7891 82.0375 25.884 81.6009 26.0739C81.1643 26.259 80.825 26.5152 80.5829 26.8427C80.3456 27.1654 80.227 27.5332 80.227 27.9461C80.227 28.2925 80.3077 28.5915 80.469 28.843C80.6351 29.0945 80.8511 29.3057 81.1168 29.4766C81.3873 29.6427 81.6768 29.7827 81.9853 29.8966C82.2938 30.0057 82.5904 30.0959 82.8751 30.1671L84.2988 30.5372C84.7639 30.6511 85.2409 30.8054 85.7297 31C86.2185 31.1945 86.6717 31.4508 87.0893 31.7688C87.507 32.0867 87.8439 32.4806 88.1002 32.9505C88.3612 33.4203 88.4917 33.9827 88.4917 34.6376C88.4917 35.4633 88.2781 36.1965 87.851 36.8372C87.4287 37.4779 86.8141 37.9833 86.0073 38.3535C85.2053 38.7236 84.2348 38.9087 83.0958 38.9087C82.0043 38.9087 81.0599 38.7355 80.2626 38.3891C79.4653 38.0426 78.8412 37.5515 78.3904 36.9155C77.9395 36.2748 77.6904 35.5155 77.6429 34.6376H79.8497C79.8924 35.1643 80.0633 35.6033 80.3623 35.9545C80.666 36.3009 81.0528 36.5596 81.5226 36.7304C81.9972 36.8965 82.5168 36.9796 83.0816 36.9796C83.7033 36.9796 84.2561 36.8823 84.7402 36.6877C85.229 36.4884 85.6134 36.2132 85.8934 35.862C86.1734 35.506 86.3134 35.0908 86.3134 34.6162C86.3134 34.1843 86.19 33.8308 85.9432 33.5555C85.7012 33.2803 85.3714 33.0525 84.9538 32.8721C84.5409 32.6918 84.0734 32.5328 83.5514 32.3952L81.8287 31.9254C80.6612 31.6074 79.7358 31.14 79.0524 30.523C78.3738 29.9061 78.0345 29.0898 78.0345 28.0742C78.0345 27.2342 78.2623 26.501 78.7179 25.8746C79.1734 25.2481 79.7904 24.7617 80.5687 24.4152C81.347 24.0641 82.225 23.8885 83.2026 23.8885C84.1897 23.8885 85.0605 24.0617 85.8151 24.4081C86.5744 24.7546 87.1724 25.2315 87.609 25.839C88.0456 26.4417 88.2734 27.1345 88.2924 27.9176H86.171ZM95.6394 38.6667H90.9198V24.0878H95.7889C97.2174 24.0878 98.4442 24.3796 99.4693 24.9634C100.494 25.5423 101.279 26.3752 101.825 27.462C102.376 28.544 102.651 29.842 102.651 31.3559C102.651 32.8745 102.373 34.1796 101.818 35.2711C101.268 36.3626 100.47 37.2026 99.4265 37.7911C98.3825 38.3748 97.1201 38.6667 95.6394 38.6667ZM93.1194 36.7447H95.5184C96.6289 36.7447 97.552 36.5359 98.2876 36.1182C99.0232 35.6959 99.5737 35.086 99.9391 34.2888C100.304 33.4867 100.487 32.5091 100.487 31.3559C100.487 30.2122 100.304 29.2417 99.9391 28.4444C99.5784 27.6471 99.0398 27.042 98.3232 26.6291C97.6065 26.2162 96.7167 26.0098 95.6537 26.0098H93.1194V36.7447ZM103.84 25.9813V24.0878H115.123V25.9813H110.575V38.6667H108.382V25.9813H103.84ZM122.969 31.3772C122.969 29.5928 123.204 27.9508 123.674 26.4512C124.144 24.9515 124.83 23.5681 125.731 22.301H127.682C127.331 22.7708 127.003 23.3474 126.7 24.0308C126.396 24.7142 126.13 25.464 125.902 26.2803C125.674 27.0918 125.497 27.9342 125.368 28.8074C125.24 29.6759 125.176 30.5325 125.176 31.3772C125.176 32.5067 125.288 33.6505 125.511 34.8084C125.734 35.9664 126.035 37.0413 126.415 38.0331C126.794 39.025 127.217 39.8342 127.682 40.4606H125.731C124.83 39.1935 124.144 37.8101 123.674 36.3104C123.204 34.8108 122.969 33.1664 122.969 31.3772ZM129.177 25.9813V24.0878H140.46V25.9813H135.912V38.6667H133.719V25.9813H129.177ZM142.753 38.6667V24.0878H147.95C149.079 24.0878 150.017 24.2824 150.762 24.6715C151.512 25.0607 152.072 25.5993 152.442 26.2874C152.812 26.9708 152.997 27.761 152.997 28.6579C152.997 29.5501 152.81 30.3355 152.435 31.0142C152.064 31.6881 151.504 32.2125 150.755 32.5874C150.01 32.9623 149.072 33.1498 147.943 33.1498H144.006V31.2562H147.743C148.455 31.2562 149.034 31.1542 149.48 30.9501C149.931 30.7461 150.261 30.4494 150.47 30.0603C150.679 29.6711 150.783 29.2037 150.783 28.6579C150.783 28.1074 150.676 27.6305 150.463 27.2271C150.254 26.8237 149.924 26.5152 149.473 26.3017C149.027 26.0834 148.441 25.9742 147.715 25.9742H144.953V38.6667H142.753ZM149.95 32.0891L153.552 38.6667H151.047L147.516 32.0891H149.95ZM167.582 28.8288H165.361C165.275 28.3542 165.116 27.9366 164.884 27.5759C164.651 27.2152 164.367 26.9091 164.03 26.6576C163.693 26.4061 163.315 26.2162 162.898 26.0881C162.485 25.96 162.046 25.8959 161.581 25.8959C160.741 25.8959 159.989 26.1071 159.324 26.5295C158.665 26.9518 158.143 27.5712 157.758 28.3874C157.379 29.2037 157.189 30.2003 157.189 31.3772C157.189 32.5637 157.379 33.565 157.758 34.3813C158.143 35.1976 158.667 35.8145 159.331 36.2321C159.996 36.6498 160.743 36.8586 161.574 36.8586C162.034 36.8586 162.471 36.7969 162.884 36.6735C163.301 36.5454 163.679 36.3579 164.015 36.1111C164.352 35.8643 164.637 35.563 164.87 35.2071C165.107 34.8464 165.271 34.4335 165.361 33.9684L167.582 33.9755C167.463 34.6921 167.233 35.3518 166.891 35.9545C166.554 36.5525 166.12 37.0698 165.589 37.5064C165.062 37.9382 164.459 38.2728 163.781 38.5101C163.102 38.7474 162.362 38.866 161.56 38.866C160.297 38.866 159.172 38.567 158.185 37.9691C157.198 37.3664 156.42 36.505 155.85 35.385C155.286 34.265 155.003 32.9291 155.003 31.3772C155.003 29.8206 155.288 28.4847 155.858 27.3695C156.427 26.2495 157.205 25.3905 158.192 24.7925C159.18 24.1898 160.302 23.8885 161.56 23.8885C162.333 23.8885 163.054 24 163.724 24.223C164.398 24.4413 165.003 24.764 165.539 25.1912C166.075 25.6135 166.519 26.1308 166.87 26.743C167.221 27.3505 167.459 28.0457 167.582 28.8288ZM169.814 38.6667V37.0721L174.747 31.961C175.274 31.4057 175.708 30.9193 176.05 30.5017C176.397 30.0793 176.655 29.6783 176.826 29.2986C176.997 28.9189 177.082 28.5156 177.082 28.0884C177.082 27.6044 176.968 27.1867 176.741 26.8356C176.513 26.4796 176.202 26.2068 175.808 26.0169C175.414 25.8223 174.97 25.7251 174.477 25.7251C173.955 25.7251 173.499 25.8318 173.11 26.0454C172.721 26.259 172.422 26.5603 172.213 26.9495C172.004 27.3386 171.9 27.7942 171.9 28.3162H169.8C169.8 27.4288 170.004 26.6529 170.412 25.9885C170.82 25.324 171.38 24.8091 172.092 24.4437C172.804 24.0735 173.613 23.8885 174.52 23.8885C175.436 23.8885 176.242 24.0712 176.94 24.4366C177.642 24.7973 178.19 25.2908 178.584 25.9173C178.978 26.539 179.175 27.2413 179.175 28.0244C179.175 28.5654 179.073 29.0945 178.869 29.6118C178.67 30.1291 178.321 30.7057 177.823 31.3416C177.324 31.9728 176.631 32.7393 175.744 33.641L172.847 36.6735V36.7803H179.41V38.6667H169.814ZM186.983 38.9087C185.858 38.904 184.897 38.6074 184.1 38.0189C183.303 37.4304 182.693 36.5738 182.271 35.4491C181.848 34.3243 181.637 32.9694 181.637 31.3844C181.637 29.804 181.848 28.4539 182.271 27.3339C182.698 26.2139 183.31 25.3596 184.107 24.7712C184.909 24.1827 185.868 23.8885 186.983 23.8885C188.098 23.8885 189.055 24.1851 189.852 24.7783C190.649 25.3668 191.259 26.221 191.681 27.341C192.109 28.4562 192.322 29.804 192.322 31.3844C192.322 32.9742 192.111 34.3315 191.689 35.4562C191.266 36.5762 190.656 37.4328 189.859 38.026C189.062 38.6145 188.103 38.9087 186.983 38.9087ZM186.983 37.0081C187.97 37.0081 188.741 36.5264 189.297 35.563C189.857 34.5996 190.137 33.2067 190.137 31.3844C190.137 30.1742 190.009 29.1515 189.752 28.3162C189.501 27.4762 189.138 26.8403 188.663 26.4084C188.193 25.9718 187.633 25.7535 186.983 25.7535C186.001 25.7535 185.23 26.2376 184.67 27.2057C184.11 28.1739 183.827 29.5667 183.823 31.3844C183.823 32.5993 183.948 33.6267 184.2 34.4667C184.456 35.302 184.819 35.9355 185.289 36.3674C185.759 36.7945 186.324 37.0081 186.983 37.0081ZM198.769 31.3772C198.769 33.1664 198.534 34.8108 198.064 36.3104C197.594 37.8101 196.908 39.1935 196.007 40.4606H194.056C194.407 39.9908 194.735 39.4142 195.039 38.7308C195.342 38.0474 195.608 37.2999 195.836 36.4884C196.064 35.6721 196.242 34.8274 196.37 33.9542C196.498 33.081 196.562 32.222 196.562 31.3772C196.562 30.2525 196.45 29.1111 196.227 27.9532C196.004 26.7952 195.703 25.7203 195.323 24.7285C194.944 23.7366 194.521 22.9274 194.056 22.301H196.007C196.908 23.5681 197.594 24.9515 198.064 26.4512C198.534 27.9508 198.769 29.5928 198.769 31.3772Z" fill="white"/>
<defs>
<linearGradient id="paint0_linear_86_67" x1="14" y1="12" x2="53.2452" y2="46.7282" gradientUnits="userSpaceOnUse">
<stop stop-color="#53AE94"/>
<stop offset="1" stop-color="#2E9175"/>
</linearGradient>
</defs>
</svg>
