<svg width="113" height="63" viewBox="0 0 113 63" fill="none" xmlns="http://www.w3.org/2000/svg">
<g clip-path="url(#clip0_101_1109)">
<path d="M62.8806 25.3439V23.4546H74.1377V25.3439H69.5993V38.0001H67.4118V25.3439H62.8806ZM76.4253 38.0001V23.4546H81.6099C82.7368 23.4546 83.6719 23.6488 84.4153 24.037C85.1634 24.4253 85.7221 24.9627 86.0914 25.6492C86.4608 26.3311 86.6454 27.1194 86.6454 28.0143C86.6454 28.9045 86.4584 29.6881 86.0843 30.3652C85.715 31.0375 85.1563 31.5607 84.4082 31.9348C83.6648 32.3088 82.7297 32.4958 81.6028 32.4958H77.6753V30.6066H81.4039C82.1142 30.6066 82.6918 30.5048 83.1369 30.3012C83.5867 30.0976 83.9158 29.8017 84.1241 29.4135C84.3325 29.0252 84.4366 28.5588 84.4366 28.0143C84.4366 27.4651 84.3301 26.9892 84.117 26.5867C83.9087 26.1843 83.5796 25.8765 83.1298 25.6635C82.6847 25.4456 82.1 25.3367 81.3755 25.3367H78.6199V38.0001H76.4253ZM83.6057 31.4376L87.1994 38.0001H84.6994L81.1767 31.4376H83.6057ZM90.6429 23.4546L94.123 29.1436H94.2366L97.7167 23.4546H100.259L95.7281 30.7274L100.288 38.0001H97.7309L94.2366 32.3893H94.123L90.6287 38.0001H88.0718L92.7096 30.7274L88.1003 23.4546H90.6429Z" fill="white"/>
<path fill-rule="evenodd" clip-rule="evenodd" d="M32.9997 12.155L46.3197 19.845C46.9277 20.1961 47.4327 20.701 47.7838 21.3091C48.1348 21.9172 48.3197 22.6069 48.3197 23.309V38.691C48.3197 39.3932 48.1348 40.0829 47.7838 40.691C47.4327 41.299 46.9277 41.804 46.3197 42.155L32.9997 49.845C32.3916 50.1961 31.7018 50.3809 30.9997 50.3809C30.2975 50.3809 29.6078 50.1961 28.9997 49.845L15.6797 42.155C15.0716 41.804 14.5667 41.299 14.2156 40.691C13.8645 40.0829 13.6797 39.3932 13.6797 38.691V23.309C13.6797 22.6069 13.8645 21.9172 14.2156 21.3091C14.5667 20.701 15.0716 20.1961 15.6797 19.845L28.9997 12.155C29.6078 11.804 30.2975 11.6191 30.9997 11.6191C31.7018 11.6191 32.3916 11.804 32.9997 12.155Z" fill="url(#paint0_linear_101_1109)"/>
<path fill-rule="evenodd" clip-rule="evenodd" d="M35.1958 37.4168C34.0198 37.8418 32.9288 37.6808 32.4438 37.6168C32.2048 37.5858 31.8008 37.5118 31.3698 37.4228L30.6548 40.0898L29.0128 39.6498L29.7157 37.0258L28.4657 36.6908L27.7628 39.3148L26.1208 38.8748L26.8237 36.2508L23.5938 35.3848L24.4598 33.5028L25.4417 33.7668C25.7717 33.8548 25.9177 33.8608 26.0907 33.7678C26.2637 33.6738 26.3478 33.4828 26.3908 33.3218L28.2108 26.5278C28.3258 26.1018 28.3217 25.9778 28.1847 25.7068C28.0477 25.4348 27.5947 25.2828 27.3358 25.2138L26.3868 24.9588L26.8438 23.2548L30.0737 24.1198L30.7787 21.4878L32.4207 21.9278L31.7157 24.5598L32.9658 24.8948L33.6717 22.2628L35.3138 22.7028L34.5998 25.3668C35.8038 25.7708 36.6527 26.2478 37.2897 27.0488C38.1147 28.0838 37.7078 29.3888 37.5998 29.6978C37.4928 30.0058 37.1927 30.5748 36.8117 30.8918C36.4307 31.2098 35.6507 31.4198 35.6507 31.4198C35.6507 31.4198 36.4027 31.8028 36.8507 32.3748C37.2967 32.9468 37.5128 33.8018 37.1968 34.8848C36.8828 35.9688 36.3698 36.9908 35.1958 37.4168ZM31.7878 31.7168C31.1775 31.5212 30.5581 31.3553 29.9318 31.2198L28.9878 34.7418C28.9878 34.7418 30.0708 35.0568 30.8148 35.1988C31.5578 35.3398 32.3587 35.3578 32.7907 35.2508C33.2207 35.1438 33.7607 34.9428 33.9767 34.1378C34.1927 33.3318 33.7468 32.8508 33.4798 32.6148C33.2148 32.3788 32.5868 31.9888 31.7878 31.7178V31.7168ZM31.7348 29.9518C32.3398 30.0888 33.0138 30.1218 33.5418 29.9918C34.0698 29.8618 34.4378 29.5318 34.5828 28.9298C34.7278 28.3278 34.4647 27.7138 33.8447 27.3258C33.2247 26.9378 32.7768 26.8008 32.2648 26.6558C31.7528 26.5108 31.2188 26.4158 31.2188 26.4158L30.3687 29.5858C30.3687 29.5858 31.1308 29.8138 31.7348 29.9518Z" fill="white"/>
<path fill-rule="evenodd" clip-rule="evenodd" d="M32.9997 12.155L46.3197 19.845C46.9277 20.1961 47.4327 20.701 47.7838 21.3091C48.1348 21.9172 48.3197 22.6069 48.3197 23.309V38.691C48.3197 39.3932 48.1348 40.0829 47.7838 40.691C47.4327 41.299 46.9277 41.804 46.3197 42.155L32.9997 49.845C32.3916 50.1961 31.7018 50.3809 30.9997 50.3809C30.2975 50.3809 29.6078 50.1961 28.9997 49.845L15.6797 42.155C15.0716 41.804 14.5667 41.299 14.2156 40.691C13.8645 40.0829 13.6797 39.3932 13.6797 38.691V23.309C13.6797 22.6069 13.8645 21.9172 14.2156 21.3091C14.5667 20.701 15.0716 20.1961 15.6797 19.845L28.9997 12.155C29.6078 11.804 30.2975 11.6191 30.9997 11.6191C31.7018 11.6191 32.3916 11.804 32.9997 12.155Z" fill="url(#paint1_linear_101_1109)"/>
<path d="M39.285 27.74C38.555 27.229 37.775 26.685 37.012 26.145C36.9944 26.1314 36.976 26.1187 36.957 26.107C36.8672 26.0342 36.7658 25.9771 36.657 25.938L36.649 25.934C34.608 25.44 32.533 24.934 30.525 24.445L25.063 23.116C25.0151 23.1029 24.9671 23.0902 24.919 23.078C24.755 23.032 24.565 22.981 24.363 23.007C24.3073 23.0152 24.2541 23.0353 24.207 23.066L24.157 23.108C24.0929 23.1726 24.0437 23.2504 24.013 23.336L24 23.369V23.564L24.008 23.593C25.16 26.82 26.341 30.093 27.48 33.26C28.357 35.698 29.268 38.225 30.158 40.705C30.213 40.873 30.368 40.983 30.563 41H30.605C30.6896 41.0025 30.7734 40.9823 30.8476 40.9415C30.9218 40.9007 30.9837 40.8408 31.027 40.768L34.367 35.896L36.81 32.336C37.143 31.852 37.476 31.362 37.81 30.877C38.357 30.076 38.923 29.249 39.484 28.444L39.514 28.401V28.351C39.526 28.203 39.53 27.9 39.285 27.74ZM35.371 29.515C34.587 29.924 33.785 30.345 32.98 30.763L34.389 29.253C34.975 28.621 35.586 27.967 36.185 27.326L36.198 27.313C36.248 27.246 36.312 27.183 36.379 27.115C36.426 27.069 36.476 27.022 36.523 26.967C36.835 27.182 37.151 27.402 37.455 27.617C37.675 27.773 37.898 27.929 38.125 28.085C37.198 28.557 36.27 29.042 35.371 29.515ZM33.355 29.312C32.752 29.966 32.128 30.637 31.508 31.299C30.306 29.839 29.078 28.359 27.888 26.929L26.265 24.976L26.261 24.972C26.138 24.833 26.021 24.682 25.902 24.538C25.826 24.441 25.746 24.348 25.666 24.251C26.156 24.378 26.649 24.496 27.134 24.61C27.56 24.71 28.003 24.816 28.437 24.926L35.78 26.71C34.966 27.579 34.148 28.46 33.355 29.312ZM31.234 37.532C31.28 37.09 31.331 36.635 31.373 36.187L31.487 35.112C31.546 34.551 31.609 33.969 31.66 33.399L31.672 33.299C31.714 32.936 31.757 32.56 31.782 32.185C31.828 32.159 31.879 32.135 31.934 32.113C31.997 32.083 32.06 32.058 32.124 32.02C33.098 31.51 34.072 31 35.051 30.493C36.025 29.987 37.025 29.464 38.016 28.945C37.1167 30.2475 36.221 31.5525 35.329 32.86C34.574 33.96 33.798 35.095 33.026 36.213C32.722 36.66 32.406 37.115 32.106 37.554C31.769 38.044 31.423 38.545 31.086 39.047C31.128 38.541 31.179 38.03 31.234 37.532ZM25.354 25.246C25.299 25.095 25.24 24.939 25.189 24.791C26.329 26.166 27.475 27.549 28.593 28.891C29.171 29.587 29.749 30.278 30.327 30.978C30.441 31.109 30.555 31.248 30.664 31.383C30.808 31.556 30.951 31.738 31.107 31.911C31.057 32.345 31.014 32.784 30.967 33.205C30.938 33.501 30.909 33.796 30.875 34.095V34.1C30.862 34.29 30.837 34.48 30.816 34.665L30.719 35.505L30.715 35.534C30.639 36.386 30.546 37.246 30.457 38.081C30.42 38.427 30.386 38.781 30.347 39.136C30.327 39.072 30.301 39.009 30.28 38.95C30.2158 38.778 30.1541 38.6049 30.095 38.431L29.643 37.179C28.213 33.201 26.784 29.228 25.354 25.246Z" fill="white"/>
</g>
<defs>
<linearGradient id="paint0_linear_101_1109" x1="42.553" y1="38.5711" x2="16.9847" y2="23.6461" gradientUnits="userSpaceOnUse">
<stop stop-color="#FF9400"/>
<stop offset="1" stop-color="#FFBB21"/>
</linearGradient>
<linearGradient id="paint1_linear_101_1109" x1="20.118" y1="14.3261" x2="57.9748" y2="53.4174" gradientUnits="userSpaceOnUse">
<stop stop-color="#D11212"/>
<stop offset="1" stop-color="#7D110B"/>
</linearGradient>
<clipPath id="clip0_101_1109">
<rect width="113" height="63" fill="white"/>
</clipPath>
</defs>
</svg>
