<svg width="474" height="135" viewBox="0 0 474 135" fill="none" xmlns="http://www.w3.org/2000/svg">
<path d="M6.1101 5.83621L0 11.7535V64.8468L5.65184 70.9262L11.4564 77.0866L46.1312 76.6003L58.0459 64.6036V12.9694L45.8257 0H12.3729L6.1101 5.83621ZM41.0904 14.8337C44.1454 18.076 44.2982 19.6972 44.2982 38.827C44.2982 57.7136 43.9927 59.4969 41.2431 62.415C38.1881 65.6574 38.0353 65.6574 29.1757 65.6574C20.4688 65.6574 20.0106 65.4952 16.9555 62.9014C13.9005 60.3075 13.7477 59.0916 13.7477 38.9891C13.7477 19.2919 13.9005 17.5086 16.8028 14.5905C19.8578 11.3482 20.0106 11.3482 28.8702 11.3482H37.8826L41.0904 14.8337Z" fill="white"/>
<path d="M73.3212 76.195H85.5414V0.810574H73.3212V76.195Z" fill="white"/>
<path d="M131.367 14.7527L131.214 28.7758L127.09 24.966C123.118 21.2373 122.813 21.0752 115.786 21.0752C108.76 21.0752 108.607 21.0752 104.024 25.6956L99.289 30.3159V68.4944L103.566 72.7095L107.69 77.0056H115.633C123.424 77.0056 123.729 76.9245 127.701 73.1958C131.367 70.0345 132.131 69.7103 133.047 71.0072C133.658 71.8178 134.269 73.3579 134.269 74.3306C134.422 75.8707 135.339 76.195 139.768 76.195H145.115V0.810604H131.367V14.7527ZM126.784 35.1794C131.367 38.746 131.367 38.9081 131.367 49.4457C131.367 59.9833 131.367 60.1454 126.784 63.712C123.424 66.1437 120.98 67.2785 118.536 67.2785C112.731 67.2785 111.509 64.3604 111.509 49.4457C111.509 34.5309 112.731 31.6128 118.536 31.6128C120.98 31.6128 123.424 32.7476 126.784 35.1794Z" fill="white"/>
<path d="M160.39 76.195H174.138L174.443 49.2026C174.443 34.4499 174.902 23.5881 175.207 25.1282C175.513 26.6683 178.262 35.4226 181.164 44.5822C184.067 53.7418 187.58 64.6037 188.955 68.7377L191.399 76.2761L205.299 75.7897L211.257 56.741C214.464 46.2845 218.283 33.4772 219.964 28.3705L222.713 19.0488L223.019 76.195H236.766V0.810669H216.145L208.66 25.7767C204.536 39.4756 200.717 52.4449 200.106 54.7146C198.884 60.0644 198.425 59.2538 191.704 36.0711C188.802 25.7767 185.136 13.699 183.761 9.07863L181.164 0.810669H160.39V76.195Z" fill="#298C21"/>
<path d="M256.777 25.8577L252.042 30.6402V68.3324L256.777 72.6285L261.36 77.0056H289.466L293.743 72.9527L297.867 68.8998V29.7485L293.132 25.4524L288.55 21.0753H261.665L256.777 25.8577ZM283.509 32.9909C285.036 34.1257 285.494 38.2597 285.494 49.4457C285.494 66.6301 285.189 67.2786 275.26 67.2786C265.484 67.2786 264.262 65.3332 264.262 49.4457C264.262 33.5583 265.484 31.6129 275.26 31.6129C279.384 31.6129 282.134 32.0992 283.509 32.9909Z" fill="#298C21"/>
<path d="M329.182 25.2903L324.752 29.5864L323.072 25.9388C321.697 22.8585 321.52 21.4146 321.52 21.4146H312.572L313.143 48.9594V76.195H325.363V39.2323L329.946 35.4226C334.986 31.2076 339.111 30.5591 342.777 33.3961C344.915 34.9362 345.221 38.5028 345.221 55.6872V76.195H357.441V30.6401L352.553 25.8577C347.665 21.0752 347.512 21.0752 340.486 21.0752C333.612 21.0752 333.459 21.1563 329.182 25.2903Z" fill="#298C21"/>
<path d="M375.771 25.9388L371.189 30.7212V68.4945L375.466 72.5474L379.59 76.6003L409.224 77.0867L416.862 69.1429L413.043 65.8195C410.904 63.9552 408.919 62.4151 408.613 62.4151C408.46 62.4151 406.78 63.712 404.947 65.2521C402.197 67.846 401.281 68.0892 395.018 68.0892C388.908 68.0892 387.839 67.846 385.7 65.6574C384.478 64.3605 383.409 61.2803 383.409 58.7674V54.3092H415.487V42.4747C415.487 30.7212 415.487 30.5591 410.752 25.8577L405.863 21.0753H380.354L375.771 25.9388ZM400.975 33.234C402.197 34.531 403.267 37.6922 403.267 40.5293V45.3928H383.409V40.5293C383.409 33.7204 386.464 30.8023 393.338 30.8023C397.615 30.8023 398.99 31.2076 400.975 33.234Z" fill="#298C21"/>
<path d="M429.234 67.2786L437.483 76.195H447.564C453.369 76.195 458.41 75.7897 459.479 75.2223C460.854 74.4928 461.312 75.3844 461.312 79.5184C461.312 86.4894 458.868 88.3538 449.856 88.3538C443.593 88.3538 442.829 88.1106 440.08 85.3546L437.177 82.2744L433.053 86.8137L428.776 91.353L433.053 95.0816L437.177 98.8914H464.367L468.95 94.0279L473.532 89.2454V21.8858H461.312V67.2786H454.133C447.564 67.2786 446.495 67.0354 444.204 64.7658C441.76 62.5772 441.454 59.8212 441.454 42.0694V21.8858H429.234V67.2786Z" fill="#298C21"/>
<path d="M164.589 123.012V88.8987H185.177V92.5632H168.72V104.09H184.111V107.754H168.72V119.347H185.443V123.012H164.589ZM194.621 88.8987L203.416 103.09H203.682L212.477 88.8987H217.341L206.614 105.955L217.341 123.012H212.477L203.682 109.087H203.416L194.621 123.012H189.757L200.751 105.955L189.757 88.8987H194.621ZM249.618 99.5591H245.487C245.243 98.3709 244.815 97.3271 244.204 96.4276C243.605 95.5281 242.872 94.773 242.006 94.1623C241.15 93.5404 240.201 93.074 239.157 92.7631C238.113 92.4522 237.025 92.2967 235.892 92.2967C233.827 92.2967 231.956 92.8186 230.279 93.8624C228.613 94.9063 227.286 96.4442 226.298 98.4764C225.321 100.509 224.832 103.001 224.832 105.955C224.832 108.909 225.321 111.402 226.298 113.434C227.286 115.466 228.613 117.004 230.279 118.048C231.956 119.092 233.827 119.614 235.892 119.614C237.025 119.614 238.113 119.458 239.157 119.147C240.201 118.837 241.15 118.376 242.006 117.765C242.872 117.143 243.605 116.382 244.204 115.483C244.815 114.572 245.243 113.529 245.487 112.351H249.618C249.307 114.095 248.74 115.655 247.919 117.032C247.097 118.409 246.075 119.581 244.854 120.547C243.632 121.502 242.261 122.229 240.74 122.729C239.229 123.228 237.614 123.478 235.892 123.478C232.983 123.478 230.396 122.768 228.13 121.346C225.865 119.925 224.083 117.904 222.784 115.283C221.484 112.662 220.835 109.553 220.835 105.955C220.835 102.357 221.484 99.2481 222.784 96.6275C224.083 94.0068 225.865 91.9858 228.13 90.5644C230.396 89.143 232.983 88.4323 235.892 88.4323C237.614 88.4323 239.229 88.6822 240.74 89.1819C242.261 89.6816 243.632 90.4145 244.854 91.3806C246.075 92.3356 247.097 93.5015 247.919 94.8785C248.74 96.2444 249.307 97.8045 249.618 99.5591ZM256.293 123.012V88.8987H260.424V104.09H278.613V88.8987H282.744V123.012H278.613V107.754H260.424V123.012H256.293ZM292.413 123.012H288.082L300.608 88.8987H304.872L317.398 123.012H313.068L302.874 94.2955H302.607L292.413 123.012ZM294.012 109.686H311.469V113.351H294.012V109.686ZM349.763 88.8987V123.012H345.765L327.176 96.2277H326.843V123.012H322.712V88.8987H326.71L345.365 115.749H345.698V88.8987H349.763ZM381.348 99.5591C380.982 98.4375 380.499 97.4325 379.899 96.5442C379.31 95.6447 378.605 94.8785 377.783 94.2455C376.973 93.6126 376.051 93.1295 375.018 92.7964C373.986 92.4633 372.853 92.2967 371.62 92.2967C369.599 92.2967 367.762 92.8186 366.107 93.8624C364.452 94.9063 363.137 96.4442 362.159 98.4764C361.182 100.509 360.694 103.001 360.694 105.955C360.694 108.909 361.188 111.402 362.176 113.434C363.164 115.466 364.502 117.004 366.19 118.048C367.878 119.092 369.777 119.614 371.887 119.614C373.841 119.614 375.563 119.197 377.051 118.365C378.55 117.521 379.716 116.332 380.548 114.8C381.392 113.257 381.814 111.441 381.814 109.353L383.08 109.62H372.82V105.955H385.812V109.62C385.812 112.429 385.212 114.872 384.013 116.949C382.825 119.025 381.181 120.635 379.083 121.779C376.995 122.912 374.596 123.478 371.887 123.478C368.867 123.478 366.213 122.768 363.925 121.346C361.649 119.925 359.872 117.904 358.595 115.283C357.329 112.662 356.696 109.553 356.696 105.955C356.696 103.257 357.057 100.831 357.779 98.6763C358.512 96.5109 359.544 94.6675 360.877 93.1462C362.209 91.6249 363.786 90.4589 365.607 89.6483C367.428 88.8376 369.433 88.4323 371.62 88.4323C373.419 88.4323 375.096 88.7044 376.651 89.2485C378.217 89.7815 379.61 90.5422 380.832 91.5305C382.064 92.5077 383.091 93.6792 383.913 95.0451C384.735 96.3998 385.301 97.9045 385.612 99.5591H381.348ZM392.887 123.012V88.8987H413.475V92.5632H397.018V104.09H412.409V107.754H397.018V119.347H413.741V123.012H392.887Z" fill="white"/>
</svg>
