<svg width="145" height="109" viewBox="0 0 145 109" fill="none" xmlns="http://www.w3.org/2000/svg">
<path d="M2.31458 103V83.886H13.8502V85.9393H4.62917V92.3977H13.2529V94.451H4.62917V100.947H13.9995V103H2.31458ZM19.142 83.886L24.0698 91.8377H24.2191L29.1469 83.886H31.8722L25.8617 93.443L31.8722 103H29.1469L24.2191 95.1976H24.0698L19.142 103H16.4167L22.5765 93.443L16.4167 83.886H19.142ZM49.9572 89.8591H47.6426C47.5057 89.1934 47.2662 88.6085 46.924 88.1045C46.588 87.6006 46.1773 87.1775 45.692 86.8353C45.2129 86.4868 44.6809 86.2255 44.0961 86.0513C43.5112 85.8771 42.9014 85.79 42.2668 85.79C41.1095 85.79 40.0611 86.0824 39.1216 86.6673C38.1883 87.2521 37.4447 88.1139 36.891 89.2525C36.3435 90.3911 36.0697 91.788 36.0697 93.443C36.0697 95.0981 36.3435 96.4949 36.891 97.6335C37.4447 98.7722 38.1883 99.6339 39.1216 100.219C40.0611 100.804 41.1095 101.096 42.2668 101.096C42.9014 101.096 43.5112 101.009 44.0961 100.835C44.6809 100.661 45.2129 100.402 45.692 100.06C46.1773 99.7117 46.588 99.2855 46.924 98.7815C47.2662 98.2713 47.5057 97.6864 47.6426 97.0269H49.9572C49.783 98.0037 49.4656 98.8779 49.0052 99.6495C48.5448 100.421 47.9724 101.077 47.2879 101.619C46.6035 102.154 45.8351 102.561 44.9827 102.841C44.1365 103.121 43.2312 103.261 42.2668 103.261C40.6366 103.261 39.1869 102.863 37.9176 102.067C36.6483 101.27 35.6497 100.138 34.9217 98.6695C34.1938 97.2011 33.8298 95.4589 33.8298 93.443C33.8298 91.4271 34.1938 89.6849 34.9217 88.2165C35.6497 86.7481 36.6483 85.6157 37.9176 84.8193C39.1869 84.0229 40.6366 83.6247 42.2668 83.6247C43.2312 83.6247 44.1365 83.7647 44.9827 84.0447C45.8351 84.3247 46.6035 84.7353 47.2879 85.2766C47.9724 85.8117 48.5448 86.465 49.0052 87.2366C49.4656 88.0019 49.783 88.8761 49.9572 89.8591ZM53.6974 103V83.886H56.012V92.3977H66.2036V83.886H68.5182V103H66.2036V94.451H56.012V103H53.6974ZM73.936 103H71.5094L78.5278 83.886H80.9171L87.9355 103H85.5089L79.7971 86.9099H79.6478L73.936 103ZM74.8319 95.5336H84.6129V97.5869H74.8319V95.5336ZM106.069 83.886V103H103.83L93.4139 87.9925H93.2273V103H90.9127V83.886H93.1526L103.606 98.9308H103.792V83.886H106.069ZM123.767 89.8591C123.562 89.2307 123.291 88.6676 122.955 88.1699C122.625 87.6659 122.23 87.2366 121.77 86.8819C121.316 86.5273 120.799 86.2566 120.221 86.0699C119.642 85.8833 119.007 85.79 118.317 85.79C117.184 85.79 116.155 86.0824 115.227 86.6673C114.3 87.2521 113.563 88.1139 113.016 89.2525C112.468 90.3911 112.194 91.788 112.194 93.443C112.194 95.0981 112.471 96.4949 113.025 97.6335C113.579 98.7722 114.328 99.6339 115.274 100.219C116.22 100.804 117.284 101.096 118.466 101.096C119.561 101.096 120.525 100.863 121.359 100.396C122.199 99.9232 122.853 99.2575 123.319 98.3988C123.792 97.534 124.028 96.5167 124.028 95.3469L124.738 95.4963H118.989V93.443H126.268V95.4963C126.268 97.0704 125.932 98.4393 125.26 99.6028C124.595 100.766 123.674 101.668 122.498 102.309C121.328 102.944 119.984 103.261 118.466 103.261C116.774 103.261 115.287 102.863 114.005 102.067C112.729 101.27 111.734 100.138 111.018 98.6695C110.309 97.2011 109.954 95.4589 109.954 93.443C109.954 91.9311 110.157 90.5716 110.561 89.3645C110.972 88.1512 111.55 87.1184 112.297 86.2659C113.044 85.4135 113.927 84.7602 114.947 84.306C115.968 83.8518 117.091 83.6247 118.317 83.6247C119.325 83.6247 120.264 83.7771 121.135 84.082C122.013 84.3807 122.793 84.8069 123.478 85.3606C124.168 85.9082 124.744 86.5646 125.204 87.3299C125.665 88.089 125.982 88.9321 126.156 89.8591H123.767ZM130.233 103V83.886H141.768V85.9393H132.547V92.3977H141.171V94.451H132.547V100.947H141.917V103H130.233Z" fill="white"/>
<path d="M6.11009 5.83616L0 11.7534V38.2595V64.8467L5.65184 70.9261L11.4564 77.0865L28.7174 76.8434L46.1312 76.6002L52.0886 70.6019L58.0459 64.6035V38.7459V12.9693L51.9358 6.48462L45.8257 -5.23105e-05H29.023H12.3729L6.11009 5.83616ZM41.0904 14.8336C44.1454 18.076 44.2982 19.6972 44.2982 38.827C44.2982 57.7136 43.9927 59.4969 41.2431 62.415C38.1881 65.6573 38.0353 65.6573 29.1757 65.6573C20.4688 65.6573 20.0106 65.4952 16.9555 62.9013C13.9005 60.3074 13.7477 59.0916 13.7477 38.9891C13.7477 19.2919 13.9005 17.5086 16.8028 14.5905C19.8578 11.3481 20.0106 11.3481 28.8702 11.3481H37.8826L41.0904 14.8336Z" fill="white"/>
<path d="M68.0459 37.6922V75.3844H74.9198H81.7936L82.0991 48.3919C82.0991 33.6393 82.5574 22.7775 82.8629 24.3176C83.1684 25.8577 85.9179 34.612 88.8202 43.7716C91.7225 52.9312 95.2358 63.793 96.6106 67.927L99.0546 75.4655L106.081 75.2223L112.955 74.9791L118.912 55.9304C122.12 45.4738 125.939 32.6666 127.619 27.5599L130.369 18.2382L130.522 46.7708L130.674 75.3844H137.548H144.422V37.6922V2.32384e-05H134.188H123.801L116.316 24.966C112.191 38.6649 108.373 51.6343 107.762 53.9039C106.539 59.2538 106.081 58.4432 99.3601 35.2605C96.4578 24.966 92.7918 12.8883 91.417 8.26799L88.8202 2.32384e-05H78.4331H68.0459V37.6922Z" fill="#298C21"/>
</svg>
