<svg width="254" height="237" viewBox="0 0 254 237" fill="none" xmlns="http://www.w3.org/2000/svg">
<path d="M30 1.55832C27.7 4.25832 28.6 8.05832 32.4 11.9583C35.1 14.6583 36 16.4583 36 18.9583C36 21.6583 37.2 23.4583 42.2 28.6583C45.5 32.1583 49.1 35.0583 50.1 35.0583C52.5 35.0583 55.9 30.4583 55.3 28.1583C55 27.1583 53.1 24.5583 50.9 22.4583C47.6 19.2583 47 17.9583 47 14.5583C47 10.9583 46.4 9.85832 41.7 5.25832C36.2 -0.241679 32.4 -1.34168 30 1.55832Z" fill="#0085FF"/>
<path d="M218.2 5.35832C214.2 9.35832 212.8 11.6583 212.3 14.6583C211.9 17.2583 210.4 19.9583 207.9 22.7583C205.7 25.1583 204 27.8583 204 28.9583C204 30.8583 208.3 35.0583 210.3 35.0583C210.9 35.0583 213.9 32.4583 217.2 29.2583C222.3 24.0583 223 22.9583 223 19.4583C223 16.1583 223.7 14.8583 227 11.5583C231.4 7.25832 232 4.25832 229.2 1.75832C226.1 -1.04168 223.7 -0.241676 218.2 5.35832Z" fill="#0085FF"/>
<path d="M185.5 17.0583C184.4 17.4583 181.1 20.3583 178.3 23.3583C173.8 28.1583 173 29.5583 173 32.7583C173 35.8583 172.3 37.3583 169.5 40.0583C164.2 45.1583 165 51.0583 171 51.0583C175 51.0583 183.9 41.5583 184.7 36.4583C185.1 34.0583 186.6 31.1583 188.7 28.7583C191.3 25.8583 192 24.1583 191.8 21.8583C191.4 18.2583 188.4 15.8583 185.5 17.0583Z" fill="#0085FF"/>
<path d="M68.7 19.8583C66.1 22.6583 66.6 24.6583 71 29.4583C74 32.6583 75 34.6583 75 37.1583C75 39.8583 76.1 41.7583 80.4 46.2583C86.2 52.4583 89.4 53.5583 92.3 50.2583C94.9 47.3583 94.3 44.7583 90 40.5583C86.7 37.3583 86 35.9583 86 32.7583C86 29.5583 85.2 28.1583 80.9 23.4583C75.3 17.5583 71.7 16.5583 68.7 19.8583Z" fill="#0085FF"/>
<path d="M123.8 23.7583C122.6 25.2583 93.7 74.1583 68.5 117.558C65.6 122.458 61.4 129.658 59.1 133.558C54.4 141.458 54 144.258 57.2 146.458C59.2 147.858 67.5 148.058 127.6 148.058C192.3 148.058 195.8 147.958 197.3 146.258C198.3 145.258 199 143.658 199 142.658C199 140.558 133.4 25.0583 131.2 23.2583C129 21.5583 125.6 21.7583 123.8 23.7583ZM136.5 53.7583C140.8 61.3583 150.9 79.0583 158.8 93.0583C166.8 107.058 174.3 120.358 175.6 122.558C176.8 124.758 179 128.558 180.4 131.058C181.8 133.558 183 135.858 183 136.258C183 136.758 157.8 137.058 126.9 137.058C81.5 137.058 70.9 136.858 71.2 135.758C71.9 132.858 127.2 39.0583 128 39.5583C128.4 39.7583 132.3 46.2583 136.5 53.7583Z" fill="#0085FF"/>
<path d="M122.9 61.7583C120.9 64.0583 120.4 97.4583 122.3 101.058C124.1 104.558 129.2 105.058 131.4 101.858C133.7 98.5583 133.8 65.5583 131.4 62.2583C129.6 59.6583 124.9 59.2583 122.9 61.7583Z" fill="#0085FF"/>
<path d="M123.7 116.858C121.5 119.258 121.6 122.358 123.8 124.358C126.1 126.458 127.9 126.458 130.8 124.458C133.5 122.658 133.7 118.958 131.2 116.758C128.8 114.558 125.7 114.658 123.7 116.858Z" fill="#0085FF"/>
<path d="M3.8 62.9583L0.5 65.8583V140.458L3.1 141.958C5.5 143.258 6 143.258 8.4 141.758L11 140.058V71.0583H40.6C59 71.0583 70.9 70.6583 72.1 70.0583C74.3 68.8583 74.8 63.2583 72.8 61.2583C71.9 60.3583 63.1 60.0583 39.3 60.0583H7L3.8 62.9583Z" fill="#0085FF"/>
<path d="M181.2 61.2583C179.2 63.2583 179.7 68.8583 181.9 70.0583C183.1 70.6583 195 71.0583 213.4 71.0583H243V203.058H11V185.958C11 176.158 10.6 168.158 10 166.958C8.5 164.358 2.5 164.358 1 166.958C0.4 168.158 0 176.758 0 188.058V207.258L6.8 214.058H105V225.058H96.2C86.1 225.058 83 226.458 83 230.958C83 232.458 83.5 234.158 84.2 234.858C85.9 236.558 168.1 236.558 169.8 234.858C170.5 234.158 171 232.458 171 230.958C171 226.458 167.9 225.058 157.7 225.058H148.9L149.2 219.758L149.5 214.558L248.2 213.558L254 206.958L253.8 136.458L253.5 65.8583L250.2 62.9583L247 60.0583H214.7C190.9 60.0583 182.1 60.3583 181.2 61.2583ZM138 225.058H116V214.058H138V225.058Z" fill="#0085FF"/>
<path d="M25.8 84.9583L22.5 87.8583L21.9 174.158L28.8 181.058H225.2L232.1 174.158L231.5 87.8583L228.2 84.9583L225 82.0583H208.1C189.8 82.0583 188 82.5583 188 87.4583C188 92.3583 190.4 93.0583 206.3 93.0583H221V170.058H33V93.0583H48C61.7 93.0583 63.2 92.8583 65 91.0583C67.4 88.6583 67.5 87.2583 65.4 84.2583C63.9 82.1583 63.3 82.0583 46.5 82.0583H29L25.8 84.9583Z" fill="#0085FF"/>
<path d="M24 188.558C22.1 190.758 22.5 195.258 24.6 196.758C25.8 197.658 28.4 198.058 31.5 197.858C35.6 197.558 36.7 197.158 37.9 194.958C39.2 192.558 39.2 192.058 37.7 189.658C36.2 187.358 35.3 187.058 30.6 187.058C27.1 187.058 24.8 187.558 24 188.558Z" fill="#0085FF"/>
</svg>
